<svg width="14" height="14" viewBox="0 0 14 14" fill="none" xmlns="http://www.w3.org/2000/svg">
<path d="M5.82839 9.71197C5.71793 9.71197 5.62839 9.62242 5.62839 9.51197V8.63264H5.2C5.08954 8.63264 5 8.5431 5 8.43264V8.28554C5 8.17508 5.08954 8.08554 5.2 8.08554H5.62839V7.47932H5.2C5.08954 7.47932 5 7.38978 5 7.27932V7.13225C5 7.02179 5.08954 6.93225 5.2 6.93225H5.62839V4.7C5.62839 4.58954 5.71793 4.5 5.82839 4.5H7.39528C7.77478 4.5 8.09514 4.56407 8.35635 4.69222C8.62251 4.82036 8.82208 4.99779 8.95521 5.2245C9.09321 5.45122 9.16221 5.71736 9.16221 6.02293C9.16221 6.3285 9.09321 6.58972 8.95521 6.80657C8.81721 7.02343 8.62003 7.191 8.36375 7.30929C8.10746 7.42264 7.79696 7.47932 7.43225 7.47932H6.58206V8.08554H7.57231C7.68277 8.08554 7.77231 8.17508 7.77231 8.28554V8.43264C7.77231 8.5431 7.68277 8.63264 7.57231 8.63264H6.58206V9.51197C6.58206 9.62242 6.49252 9.71197 6.38206 9.71197H5.82839ZM6.56728 6.93225H7.29918C7.61953 6.93225 7.8635 6.86079 8.03106 6.71786C8.20356 6.57494 8.28982 6.35807 8.28982 6.06729C8.28982 5.77157 8.20356 5.55472 8.03106 5.41672C7.8635 5.27379 7.61953 5.20232 7.29918 5.20232H6.56728V6.93225Z" fill="#1C1C1C"/>
<path d="M7 13C10.3137 13 13 10.3137 13 7C13 3.68629 10.3137 1 7 1C3.68629 1 1 3.68629 1 7C1 10.3137 3.68629 13 7 13Z" stroke="#1C1C1C" stroke-width="1.5"/>
</svg>
