<svg width="15" height="15" viewBox="0 0 15 15" fill="none" xmlns="http://www.w3.org/2000/svg">
<path d="M6.32839 10.212C6.21793 10.212 6.12839 10.1224 6.12839 10.012V9.13264H5.7C5.58954 9.13264 5.5 9.0431 5.5 8.93264V8.78554C5.5 8.67508 5.58954 8.58554 5.7 8.58554H6.12839V7.97932H5.7C5.58954 7.97932 5.5 7.88978 5.5 7.77932V7.63225C5.5 7.52179 5.58954 7.43225 5.7 7.43225H6.12839V5.2C6.12839 5.08954 6.21793 5 6.32839 5H7.89528C8.27478 5 8.59514 5.06407 8.85635 5.19222C9.12251 5.32036 9.32208 5.49779 9.45521 5.7245C9.59321 5.95122 9.66221 6.21736 9.66221 6.52293C9.66221 6.8285 9.59321 7.08972 9.45521 7.30657C9.31721 7.52343 9.12003 7.691 8.86375 7.80929C8.60746 7.92264 8.29696 7.97932 7.93225 7.97932H7.08206V8.58554H8.07231C8.18277 8.58554 8.27231 8.67508 8.27231 8.78554V8.93264C8.27231 9.0431 8.18277 9.13264 8.07231 9.13264H7.08206V10.012C7.08206 10.1224 6.99252 10.212 6.88206 10.212H6.32839ZM7.06728 7.43225H7.79918C8.11953 7.43225 8.3635 7.36079 8.53106 7.21786C8.70356 7.07494 8.78982 6.85807 8.78982 6.56729C8.78982 6.27157 8.70356 6.05472 8.53106 5.91672C8.3635 5.77379 8.11953 5.70232 7.79918 5.70232H7.06728V7.43225Z" fill="#FBFBFB"/>
<path d="M7.5 14C11.0899 14 14 11.0899 14 7.5C14 3.91015 11.0899 1 7.5 1C3.91015 1 1 3.91015 1 7.5C1 11.0899 3.91015 14 7.5 14Z" stroke="#FBFBFB" stroke-width="1.5"/>
</svg>
