<svg width="52" height="52" viewBox="0 0 52 52" fill="none" xmlns="http://www.w3.org/2000/svg">
<path d="M38.48 16H13.52L26 27.3913L38.48 16Z" fill="#FBFBFB"/>
<path d="M13 16.5263V34.4211C13.0005 34.8397 13.165 35.241 13.4574 35.537C13.7499 35.833 14.1464 35.9995 14.56 36H37.44C37.8536 35.9995 38.2501 35.833 38.5426 35.537C38.835 35.241 38.9995 34.8397 39 34.4211V16.5263C39 16.5193 38.9991 16.5126 38.9982 16.5059C38.9975 16.501 38.9968 16.4962 38.9965 16.4912L26.3514 28.4933C26.2555 28.5822 26.1301 28.6316 26 28.6316C25.8699 28.6316 25.7445 28.5822 25.6486 28.4933L13 16.5263Z" fill="#FBFBFB"/>
</svg>
