<svg width="52" height="52" viewBox="0 0 52 52" fill="none" xmlns="http://www.w3.org/2000/svg">
<path d="M32.6622 37.2759H32.6362C30.2383 37.2759 27.864 36.8514 25.6491 36.0268C23.4341 35.2022 21.4219 33.9937 19.7276 32.4703C18.0333 30.9469 16.6901 29.1385 15.7748 27.1486C14.8596 25.1587 14.3902 23.0263 14.3936 20.8734C14.4003 19.5056 15.0102 18.1958 16.0898 17.2307C17.1695 16.2657 18.631 15.724 20.1545 15.7241C20.2768 15.7243 20.397 15.7534 20.5029 15.8085C20.6087 15.8636 20.6965 15.9428 20.7574 16.0381L23.5636 20.4478C23.6481 20.5808 23.6917 20.7316 23.6899 20.8847C23.688 21.0377 23.6409 21.1876 23.5533 21.319L21.2996 24.6915C21.2199 24.8107 21.1735 24.9454 21.1644 25.0842C21.1552 25.223 21.1836 25.3617 21.2472 25.4885C22.5003 27.9927 24.7329 29.9973 27.5221 31.1225C27.6633 31.1795 27.8178 31.2051 27.9724 31.1968C28.127 31.1886 28.2771 31.1469 28.4099 31.0753L32.1658 29.0519C32.3121 28.9732 32.4791 28.9308 32.6496 28.9292C32.8201 28.9275 32.9881 28.9666 33.1363 29.0424L38.0475 31.5623C38.1536 31.617 38.2418 31.6957 38.3032 31.7907C38.3646 31.8858 38.397 31.9936 38.3971 32.1035C38.3973 33.4713 37.794 34.7835 36.7192 35.7529C35.6444 36.7223 34.1856 37.2699 32.6622 37.2759Z" fill="#FBFBFB"/>
</svg>
