<svg width="18" height="18" viewBox="0 0 18 18" fill="none" xmlns="http://www.w3.org/2000/svg">
<g clip-path="url(#clip0_621_19669)">
<path d="M8.92356 1.45365C10.2496 1.45365 11.5777 1.83028 12.7643 2.5429C13.517 2.99604 14.1933 3.56553 14.7679 4.23053L12.7854 4.1651C12.5526 4.15732 12.3576 4.34003 12.35 4.57313C12.3423 4.80609 12.5248 5.00133 12.7577 5.00885L15.5006 5.09948C15.6581 5.16438 15.8393 5.12811 15.9598 5.0074C16.0801 4.8867 16.1161 4.70544 16.051 4.5478L15.9607 1.8039C15.9554 1.5708 15.7623 1.38611 15.5293 1.39126C15.2965 1.39653 15.1117 1.58979 15.117 1.82276C15.117 1.82593 15.117 1.82883 15.1172 1.83186L15.1694 3.41488C14.5891 2.79434 13.9258 2.25704 13.1985 1.81867C11.8808 1.02756 10.4025 0.609375 8.92356 0.609375C6.56106 0.609375 4.38287 1.58412 2.79108 3.35394C1.38097 4.92179 0.539062 7.03208 0.539062 8.99912C0.539062 9.23222 0.727852 9.42126 0.960937 9.42126C1.19402 9.42126 1.38281 9.23222 1.38281 8.99912C1.38281 7.23498 2.14364 5.33575 3.41823 3.91881C4.84812 2.32933 6.80311 1.45365 8.92356 1.45365Z" fill="black"/>
<path d="M16.9932 8.57812C16.7601 8.57812 16.5713 8.76703 16.5713 9.00026C16.5713 10.7643 15.8105 12.6636 14.5359 14.0807C13.106 15.6702 11.151 16.5456 9.03058 16.5456C7.70458 16.5456 6.37646 16.1692 5.18981 15.4566C4.43715 15.0033 3.76084 14.4339 3.1863 13.769L5.16871 13.8344C5.40153 13.8419 5.59652 13.6592 5.60417 13.4263C5.61181 13.1933 5.42935 12.9982 5.1964 12.9904L2.45355 12.8999C2.29601 12.835 2.11486 12.8714 1.99437 12.992C1.874 13.1127 1.83801 13.2938 1.90314 13.4515L1.99344 16.1954C1.99872 16.4286 2.19186 16.6134 2.42481 16.6081C2.65763 16.603 2.84247 16.4097 2.83719 16.1766C2.83719 16.1736 2.83719 16.1707 2.83693 16.1675L2.78472 14.5845C3.36506 15.2052 4.02833 15.7422 4.75567 16.1808C6.07337 16.9721 7.55165 17.3901 9.03058 17.3901C11.3931 17.3901 13.5713 16.4155 15.1631 14.6457C16.5732 13.0777 17.4151 10.9674 17.4151 9.00026C17.4151 8.76703 17.2263 8.57812 16.9932 8.57812Z" fill="black"/>
</g>
<defs>
<clipPath id="clip0_621_19669">
<rect width="18" height="18" fill="white"/>
</clipPath>
</defs>
</svg>
