<svg width="52" height="52" viewBox="0 0 52 52" fill="none" xmlns="http://www.w3.org/2000/svg">
<path d="M35.1432 29.5107C35.1432 29.5107 37.2464 31.6054 37.7641 32.5777C37.779 32.5977 37.7864 32.6177 37.7914 32.6277C38.0019 32.9852 38.0515 33.2626 37.9474 33.4701C37.774 33.815 37.1795 33.985 36.9764 34H33.2605C33.0029 34 32.4629 33.9325 31.8089 33.4776C31.307 33.1233 30.8124 32.5425 30.3302 31.9761L30.3275 31.9728C29.6066 31.128 28.9824 30.3981 28.3531 30.3981C28.2732 30.398 28.1938 30.4106 28.1178 30.4356C27.6422 30.5906 27.0328 31.2755 27.0328 33.1001C27.0328 33.6701 26.5869 33.9975 26.2723 33.9975H24.5704C23.9908 33.9975 20.971 33.7925 18.2956 30.9455C15.0207 27.4586 12.0728 20.4648 12.0481 20.3998C11.8623 19.9473 12.2463 19.7049 12.6649 19.7049H16.4179C16.9183 19.7049 17.0818 20.0123 17.1957 20.2848C17.3295 20.6022 17.82 21.8645 18.6251 23.2843C19.9306 25.5989 20.7307 26.5387 21.3723 26.5387C21.4926 26.5373 21.6108 26.5064 21.7167 26.4488C22.554 25.9788 22.3979 22.9668 22.3607 22.3419C22.3607 22.2245 22.3583 20.9947 21.9297 20.4048C21.6225 19.9773 21.0998 19.8149 20.7828 19.7549C20.9111 19.5762 21.0802 19.4313 21.2757 19.3324C21.8504 19.0425 22.8859 19 23.914 19H24.4862C25.601 19.015 25.8883 19.0875 26.2921 19.19C27.1096 19.3874 27.1269 19.9198 27.0551 21.742C27.0328 22.2595 27.0105 22.8444 27.0105 23.5342C27.0105 23.6842 27.0031 23.8442 27.0031 24.0142L27.0029 24.0209C26.9781 24.9466 26.9501 25.9949 27.5976 26.4263C27.6822 26.4798 27.7801 26.5084 27.88 26.5087C28.1054 26.5087 28.7842 26.5087 30.6223 23.3268C31.1892 22.3026 31.6818 21.2383 32.0962 20.1423C32.1334 20.0773 32.2424 19.8774 32.3712 19.7999C32.4663 19.751 32.5717 19.7261 32.6784 19.7274H37.0903C37.5709 19.7274 37.9004 19.7999 37.9623 19.9873C38.0713 20.2848 37.9425 21.1921 35.9285 23.9442L35.0293 25.1415C33.2035 27.5561 33.2035 27.6786 35.1432 29.5107Z" fill="#1C1C1C"/>
</svg>
