<svg width="114" height="152" viewBox="0 0 114 152" fill="none" xmlns="http://www.w3.org/2000/svg">
<g filter="url(#filter0_d_339_7678)">
<path d="M61.6825 24.904C64.3835 13.975 66.6344 5.03629 66.6344 5.03629C64.2807 3.13516 60.6733 2.03371 57.0004 2.00077C53.3277 2.03387 49.7205 3.13537 47.3669 5.03642C47.3669 5.03642 49.6178 13.9752 52.3188 24.9041L61.6825 24.904Z" fill="#AF0808"/>
<path d="M61.7725 125.798L52.2288 125.798C45.9702 130.774 40.1641 136.747 39.5339 138.54C37.9132 143.152 76.0892 143.155 74.4675 138.54C73.8372 136.747 68.0311 130.774 61.7725 125.798Z" fill="#AF0808"/>
<path d="M61.7725 125.798C83.5613 122.469 96.8858 121.932 108.5 106.242C75.5 114.5 39.5339 114.5 5.5 106.242C17.1142 121.932 30.44 122.469 52.2288 125.798L61.7725 125.798Z" fill="#AF0808"/>
<path d="M108.5 106.242C108.5 105.196 107.6 101.739 105.89 101.739C92.2943 105.549 74.6475 107.427 57.0007 107.414C39.3538 107.427 21.707 105.549 8.11168 101.739C6.40102 101.739 5.49965 105.196 5.5 106.242C39.5339 114.5 75.5 114.5 108.5 106.242Z" fill="#FFD501"/>
<path d="M63.7316 33.1175C64.5278 30.2032 64.4849 28.6858 61.6825 24.904L52.3188 24.9041C49.5164 28.6859 49.4735 30.2034 50.2698 33.1176C50.3834 33.5336 50.5142 33.9781 50.6565 34.4616L50.6568 34.4628L63.3445 34.4627L63.3449 34.4615C63.4871 33.978 63.6179 33.5335 63.7316 33.1175Z" fill="#FFD501"/>
<path d="M63.2617 38.9999L63.3445 34.4627L50.6568 34.4628V39L63.2617 38.9999Z" fill="#FFD501"/>
<path d="M72.5 58.0588C70.8839 57.7552 69.3096 57.5772 67.8049 57.5208C77.1624 73.7603 80.4072 91.2609 80.4114 106.254C81.7869 106.115 83.1502 105.963 84.4992 105.799C83.9642 86.0072 81.0797 74.898 72.5 58.0588Z" fill="#FFD501"/>
<path d="M46.1965 57.521C44.5366 57.5832 42.7919 57.7934 41 58.1569C32.4203 74.9961 29.5358 85.9457 29.0008 105.737C30.5155 105.926 32.0487 106.098 33.5973 106.255C33.6018 91.2613 37.006 73.4896 46.1965 57.521Z" fill="#FFD501"/>
<path d="M105.89 101.739C105.89 74.3689 87.4191 60.8616 72.5 58.0588C81.0797 74.898 83.9642 86.0072 84.4992 105.799C92.2421 104.856 99.5117 103.501 105.89 101.739Z" fill="#D2D2D2" fill-opacity="0.62"/>
<path d="M67.8049 57.5208L46.1965 57.521C37.006 73.4896 33.6018 91.2613 33.5973 106.255C41.154 107.02 49.0773 107.408 57.0007 107.414C64.9266 107.408 72.8526 107.02 80.4114 106.254C80.4072 91.2609 77.1624 73.7603 67.8049 57.5208Z" fill="#D2D2D2" fill-opacity="0.62"/>
<path d="M41 58.1569C26.1719 61.1652 8.11168 74.6747 8.11168 101.739C14.3518 103.463 21.4455 104.797 29.0008 105.737C29.5358 85.9457 32.4203 74.9961 41 58.1569Z" fill="#D2D2D2" fill-opacity="0.62"/>
<path d="M67.8049 57.5208C67.8049 45.7293 66.1428 41.2821 63.2617 38.9999L50.6568 39C47.7757 41.2822 46.1965 45.7294 46.1965 57.521L67.8049 57.5208Z" fill="#D2D2D2" fill-opacity="0.62"/>
<path d="M66.6344 5.03629C66.6344 5.03629 64.3835 13.975 61.6825 24.904M66.6344 5.03629C64.2807 3.13516 60.6733 2.03371 57.0004 2.00077M66.6344 5.03629C64.0451 2.90405 60.4931 1.96929 57.0004 2.00077M61.6825 24.904C64.4849 28.6858 64.5278 30.2032 63.7316 33.1175C63.6179 33.5335 63.4871 33.978 63.3449 34.4615L63.3445 34.4627M61.6825 24.904L52.3188 24.9041M63.3445 34.4627L63.2617 38.9999M63.3445 34.4627L50.6568 34.4628M63.2617 38.9999C66.1428 41.2821 67.8049 45.7293 67.8049 57.5208M63.2617 38.9999L50.6568 39M67.8049 57.5208C83.2008 58.098 105.89 71.4041 105.89 101.739M67.8049 57.5208L46.1965 57.521M67.8049 57.5208C69.3096 57.5772 70.8839 57.7552 72.5 58.0588M67.8049 57.5208C77.1624 73.7603 80.4072 91.2609 80.4114 106.254M105.89 101.739C107.6 101.739 108.5 105.196 108.5 106.242M105.89 101.739C92.2943 105.549 74.6475 107.427 57.0007 107.414M105.89 101.739C99.5117 103.501 92.2421 104.856 84.4992 105.799M105.89 101.739C105.89 74.3689 87.4191 60.8616 72.5 58.0588M108.5 106.242C96.8858 121.932 83.5613 122.469 61.7725 125.798M108.5 106.242C75.5 114.5 39.5339 114.5 5.5 106.242M61.7725 125.798L52.2288 125.798M61.7725 125.798C68.0311 130.774 73.8372 136.747 74.4675 138.54M52.3188 24.9041C49.6178 13.9752 47.3669 5.03642 47.3669 5.03642M52.3188 24.9041C49.5164 28.6859 49.4735 30.2034 50.2698 33.1176C50.3834 33.5336 50.5142 33.9781 50.6565 34.4616L50.6568 34.4628M50.6568 39C47.7757 41.2822 46.1965 45.7294 46.1965 57.521M50.6568 39V34.4628M46.1965 57.521C30.8005 58.0981 8.11168 71.4041 8.11168 101.739M46.1965 57.521C44.5366 57.5832 42.7919 57.7934 41 58.1569M46.1965 57.521C37.006 73.4896 33.6018 91.2613 33.5973 106.255M8.11168 101.739C6.40102 101.739 5.49965 105.196 5.5 106.242M8.11168 101.739C21.707 105.549 39.3538 107.427 57.0007 107.414M8.11168 101.739C14.3518 103.463 21.4455 104.797 29.0008 105.737M8.11168 101.739C8.11168 74.6747 26.1719 61.1652 41 58.1569M52.2288 125.798C30.44 122.469 17.1142 121.932 5.5 106.242M52.2288 125.798C45.9702 130.774 40.1641 136.747 39.5339 138.54M47.3669 5.03642C49.9561 2.90428 53.5078 1.96945 57.0004 2.00077M47.3669 5.03642C49.7205 3.13537 53.3277 2.03387 57.0004 2.00077M39.5339 138.54C37.9133 143.152 76.0892 143.155 74.4675 138.54M39.5339 138.54C37.9122 143.155 76.0881 143.152 74.4675 138.54M80.4114 106.284C80.4114 106.274 80.4114 106.264 80.4114 106.254M33.5973 106.284C33.5973 106.275 33.5973 106.265 33.5973 106.255M41 58.1569C32.4203 74.9961 29.5358 85.9457 29.0008 105.737M29 105.768C29.0003 105.758 29.0006 105.748 29.0008 105.737M72.5 58.0588C81.0797 74.898 83.9642 86.0072 84.4992 105.799M84.5 105.83C84.4997 105.82 84.4994 105.809 84.4992 105.799M57.0007 107.414C64.9266 107.408 72.8526 107.02 80.4114 106.254M57.0007 107.414C49.0773 107.408 41.154 107.02 33.5973 106.255M80.4114 106.254C81.7869 106.115 83.1502 105.963 84.4992 105.799M29.0008 105.737C30.5155 105.926 32.0487 106.098 33.5973 106.255" stroke="black" stroke-width="3"/>
</g>
<defs>
<filter id="filter0_d_339_7678" x="0" y="0.5" width="114" height="151" filterUnits="userSpaceOnUse" color-interpolation-filters="sRGB">
<feFlood flood-opacity="0" result="BackgroundImageFix"/>
<feColorMatrix in="SourceAlpha" type="matrix" values="0 0 0 0 0 0 0 0 0 0 0 0 0 0 0 0 0 0 127 0" result="hardAlpha"/>
<feOffset dy="4"/>
<feGaussianBlur stdDeviation="2"/>
<feComposite in2="hardAlpha" operator="out"/>
<feColorMatrix type="matrix" values="0 0 0 0 0 0 0 0 0 0 0 0 0 0 0 0 0 0 0.25 0"/>
<feBlend mode="normal" in2="BackgroundImageFix" result="effect1_dropShadow_339_7678"/>
<feBlend mode="normal" in="SourceGraphic" in2="effect1_dropShadow_339_7678" result="shape"/>
</filter>
</defs>
</svg>
