<svg width="106" height="144" viewBox="0 0 106 144" fill="none" xmlns="http://www.w3.org/2000/svg">
<path d="M57.6825 24.904C60.3835 13.975 62.6344 5.03629 62.6344 5.03629C60.2807 3.13516 56.6733 2.03371 53.0004 2.00077C49.3277 2.03387 45.7205 3.13537 43.3669 5.03642C43.3669 5.03642 45.6178 13.9752 48.3188 24.9041L57.6825 24.904Z" fill="#AF0808"/>
<path d="M57.7725 125.798L48.2288 125.798C41.9702 130.774 36.1641 136.747 35.5339 138.54C33.9132 143.152 72.0892 143.155 70.4675 138.54C69.8372 136.747 64.0311 130.774 57.7725 125.798Z" fill="#AF0808"/>
<path d="M57.7725 125.798C79.5613 122.469 92.8858 121.932 104.5 106.242C71.5 114.5 35.5339 114.5 1.5 106.242C13.1142 121.932 26.44 122.469 48.2288 125.798L57.7725 125.798Z" fill="#AF0808"/>
<path d="M104.5 106.242C104.5 105.196 103.6 101.739 101.89 101.739C88.2943 105.549 70.6475 107.427 53.0007 107.414C35.3538 107.427 17.707 105.549 4.11168 101.739C2.40102 101.739 1.49965 105.196 1.5 106.242C35.5339 114.5 71.5 114.5 104.5 106.242Z" fill="#FFD501"/>
<path d="M59.7316 33.1175C60.5278 30.2032 60.4849 28.6858 57.6825 24.904L48.3188 24.9041C45.5164 28.6859 45.4735 30.2034 46.2698 33.1176C46.3834 33.5336 46.5142 33.9781 46.6565 34.4616L46.6568 34.4628L59.3445 34.4627L59.3449 34.4615C59.4871 33.978 59.6179 33.5335 59.7316 33.1175Z" fill="#FFD501"/>
<path d="M59.2617 38.9999L59.3445 34.4627L46.6568 34.4628V39L59.2617 38.9999Z" fill="#FFD501"/>
<path d="M68.5 58.0588C66.8839 57.7552 65.3096 57.5772 63.8049 57.5208C73.1624 73.7603 76.4072 91.2609 76.4114 106.254C77.7869 106.115 79.1502 105.963 80.4992 105.799C79.9642 86.0072 77.0797 74.898 68.5 58.0588Z" fill="#FFD501"/>
<path d="M42.1965 57.521C40.5366 57.5832 38.7919 57.7934 37 58.1569C28.4203 74.9961 25.5358 85.9457 25.0008 105.737C26.5155 105.926 28.0487 106.098 29.5973 106.255C29.6018 91.2613 33.006 73.4896 42.1965 57.521Z" fill="#FFD501"/>
<path d="M101.89 101.739C101.89 74.3689 83.4191 60.8616 68.5 58.0588C77.0797 74.898 79.9642 86.0072 80.4992 105.799C88.2421 104.856 95.5117 103.501 101.89 101.739Z" fill="#D2D2D2" fill-opacity="0.62"/>
<path d="M63.8049 57.5208L42.1965 57.521C33.006 73.4896 29.6018 91.2613 29.5973 106.255C37.154 107.02 45.0773 107.408 53.0007 107.414C60.9266 107.408 68.8526 107.02 76.4114 106.254C76.4072 91.2609 73.1624 73.7603 63.8049 57.5208Z" fill="#D2D2D2" fill-opacity="0.62"/>
<path d="M37 58.1569C22.1719 61.1652 4.11168 74.6747 4.11168 101.739C10.3518 103.463 17.4455 104.797 25.0008 105.737C25.5358 85.9457 28.4203 74.9961 37 58.1569Z" fill="#D2D2D2" fill-opacity="0.62"/>
<path d="M63.8049 57.5208C63.8049 45.7293 62.1428 41.2821 59.2617 38.9999L46.6568 39C43.7757 41.2822 42.1965 45.7294 42.1965 57.521L63.8049 57.5208Z" fill="#D2D2D2" fill-opacity="0.62"/>
<path d="M62.6344 5.03629C62.6344 5.03629 60.3835 13.975 57.6825 24.904M62.6344 5.03629C60.2807 3.13516 56.6733 2.03371 53.0004 2.00077M62.6344 5.03629C60.0451 2.90405 56.4931 1.96929 53.0004 2.00077M57.6825 24.904C60.4849 28.6858 60.5278 30.2032 59.7316 33.1175C59.6179 33.5335 59.4871 33.978 59.3449 34.4615L59.3445 34.4627M57.6825 24.904L48.3188 24.9041M59.3445 34.4627L59.2617 38.9999M59.3445 34.4627L46.6568 34.4628M59.2617 38.9999C62.1428 41.2821 63.8049 45.7293 63.8049 57.5208M59.2617 38.9999L46.6568 39M63.8049 57.5208C79.2008 58.098 101.89 71.4041 101.89 101.739M63.8049 57.5208L42.1965 57.521M63.8049 57.5208C65.3096 57.5772 66.8839 57.7552 68.5 58.0588M63.8049 57.5208C73.1624 73.7603 76.4072 91.2609 76.4114 106.254M101.89 101.739C103.6 101.739 104.5 105.196 104.5 106.242M101.89 101.739C88.2943 105.549 70.6475 107.427 53.0007 107.414M101.89 101.739C95.5117 103.501 88.2421 104.856 80.4992 105.799M101.89 101.739C101.89 74.3689 83.4191 60.8616 68.5 58.0588M104.5 106.242C92.8858 121.932 79.5613 122.469 57.7725 125.798M104.5 106.242C71.5 114.5 35.5339 114.5 1.5 106.242M57.7725 125.798L48.2288 125.798M57.7725 125.798C64.0311 130.774 69.8372 136.747 70.4675 138.54M48.3188 24.9041C45.6178 13.9752 43.3669 5.03642 43.3669 5.03642M48.3188 24.9041C45.5164 28.6859 45.4735 30.2034 46.2698 33.1176C46.3834 33.5336 46.5142 33.9781 46.6565 34.4616L46.6568 34.4628M46.6568 39C43.7757 41.2822 42.1965 45.7294 42.1965 57.521M46.6568 39V34.4628M42.1965 57.521C26.8005 58.0981 4.11168 71.4041 4.11168 101.739M42.1965 57.521C40.5366 57.5832 38.7919 57.7934 37 58.1569M42.1965 57.521C33.006 73.4896 29.6018 91.2613 29.5973 106.255M4.11168 101.739C2.40102 101.739 1.49965 105.196 1.5 106.242M4.11168 101.739C17.707 105.549 35.3538 107.427 53.0007 107.414M4.11168 101.739C10.3518 103.463 17.4455 104.797 25.0008 105.737M4.11168 101.739C4.11168 74.6747 22.1719 61.1652 37 58.1569M48.2288 125.798C26.44 122.469 13.1142 121.932 1.5 106.242M48.2288 125.798C41.9702 130.774 36.1641 136.747 35.5339 138.54M43.3669 5.03642C45.9561 2.90428 49.5078 1.96945 53.0004 2.00077M43.3669 5.03642C45.7205 3.13537 49.3277 2.03387 53.0004 2.00077M35.5339 138.54C33.9133 143.152 72.0892 143.155 70.4675 138.54M35.5339 138.54C33.9122 143.155 72.0881 143.152 70.4675 138.54M76.4114 106.284C76.4114 106.274 76.4114 106.264 76.4114 106.254M29.5973 106.284C29.5973 106.275 29.5973 106.265 29.5973 106.255M37 58.1569C28.4203 74.9961 25.5358 85.9457 25.0008 105.737M25 105.768C25.0003 105.758 25.0006 105.748 25.0008 105.737M68.5 58.0588C77.0797 74.898 79.9642 86.0072 80.4992 105.799M80.5 105.83C80.4997 105.82 80.4994 105.809 80.4992 105.799M53.0007 107.414C60.9266 107.408 68.8526 107.02 76.4114 106.254M53.0007 107.414C45.0773 107.408 37.154 107.02 29.5973 106.255M76.4114 106.254C77.7869 106.115 79.1502 105.963 80.4992 105.799M25.0008 105.737C26.5155 105.926 28.0487 106.098 29.5973 106.255" stroke="black" stroke-width="3"/>
</svg>
