<svg width="144" height="87" viewBox="0 0 144 87" fill="none" xmlns="http://www.w3.org/2000/svg">
<path fill-rule="evenodd" clip-rule="evenodd" d="M109.037 22.517C108.77 19.1816 108.507 15.8519 108.258 12.5194C108.132 12.4879 108.069 12.4707 107.943 12.4393C107.685 15.6458 107.41 18.8466 107.133 22.0475C107.894 22.2335 108.278 22.328 109.037 22.5141V22.517ZM120.174 29.3395V32.0679C119.464 31.9219 118.748 31.7644 118.038 31.6013C102.75 28.2687 87.3753 23.8511 71.646 23.8511C55.9167 23.8511 39.151 28.701 23.1383 32.0679V29.3395C16.3129 30.3759 9.49329 31.0687 2.58203 31.2663V32.2655C5.59104 32.171 8.6029 32.0135 11.5947 31.7473C15.1191 31.4409 18.6291 31.0315 22.1391 30.5162V33.3105C24.5269 32.8123 26.9318 32.2798 29.3539 31.7272C43.288 28.535 57.4341 24.8503 71.646 24.8503C85.8579 24.8503 99.7205 28.452 113.529 31.6213C116.08 32.2053 118.625 32.7779 121.173 33.2961V30.4961C124.13 30.9428 127.088 31.3006 130.045 31.5869C133.607 31.942 137.171 32.171 140.753 32.2655V31.2663C133.839 31.0687 126.996 30.373 120.174 29.3395ZM106.921 24.6098C107.161 24.6671 107.284 24.7014 107.522 24.7558V25.9526C106.609 25.7321 106.156 25.6176 105.243 25.3943C105.243 24.9133 105.243 24.6728 105.246 24.2004C105.521 24.2691 105.664 24.3006 105.945 24.3693C106.285 20.3153 106.635 16.2613 106.967 12.2045C106.506 12.0957 106.277 12.0384 105.813 11.9296V10.6842C107.147 11.0078 107.814 11.1652 109.143 11.4887C109.483 16.1268 109.858 20.7677 110.213 25.4057C110.494 25.4716 110.631 25.5088 110.909 25.5718V26.7685C110.001 26.5509 109.546 26.4421 108.639 26.2188C108.639 25.735 108.639 25.4974 108.642 25.0221C108.879 25.0794 109.002 25.1137 109.243 25.171C109.194 24.5697 109.171 24.2749 109.128 23.6851C108.295 23.4789 107.877 23.3787 107.038 23.1755C106.99 23.7395 106.967 24.0229 106.921 24.6012V24.6098ZM113.678 24.4982C113.291 24.4094 113.096 24.3608 112.71 24.2691C112.71 23.4045 112.713 22.9751 112.713 22.1219C112.713 21.7297 112.713 21.3231 112.744 20.8908C112.773 20.4499 112.839 19.989 112.965 19.528C113.088 19.0814 113.262 18.6462 113.449 18.2025C113.615 17.7959 113.783 17.3693 113.909 16.9227C114.027 16.4932 114.098 16.0466 114.11 15.6372C114.121 15.2708 114.09 14.9386 114.007 14.6781C113.935 14.4577 113.818 14.2802 113.683 14.1341C113.529 13.971 113.357 13.8478 113.199 13.762C112.985 13.6474 112.796 13.5844 112.618 13.5501C112.472 13.5157 112.398 13.4957 112.246 13.4613V12.2217C112.395 12.2617 112.469 12.2761 112.618 12.3133C112.856 12.3648 113.111 12.4478 113.426 12.6253C113.672 12.7628 113.955 12.9603 114.213 13.238C114.488 13.5386 114.734 13.9251 114.889 14.4176C115.026 14.8585 115.086 15.3738 115.069 15.9063C115.055 16.4274 114.966 16.9714 114.826 17.4838C114.694 17.9648 114.505 18.4229 114.325 18.8781C114.156 19.2875 113.99 19.6883 113.884 20.0777C113.781 20.4499 113.729 20.8278 113.7 21.2086C113.672 21.5922 113.672 21.9816 113.672 22.3567V24.5039L113.678 24.4982ZM63.9302 19.236C63.9388 15.1934 63.9474 11.1509 63.9503 7.10836C63.5695 7.14272 63.3777 7.1599 62.9912 7.19998C62.6333 11.2855 62.2496 15.3738 61.8775 19.4593C62.6991 19.3648 63.1085 19.3162 63.9302 19.2389V19.236ZM28.2573 14.1456V12.9116C29.1363 12.7141 29.58 12.6168 30.4618 12.4135C30.4647 13.2581 30.4676 13.6703 30.4676 14.4777C30.4704 16.1755 30.4762 16.9885 30.479 18.6033C30.4819 19.9689 30.4876 21.1542 30.7997 21.5693C30.9228 21.7268 31.1232 21.7812 31.3666 21.7812C31.5441 21.7812 31.7445 21.7526 31.9506 21.7096C31.9391 18.9096 31.9277 16.1096 31.9162 13.3153C31.6242 13.3783 31.4782 13.4155 31.189 13.4814C31.1862 12.9918 31.1862 12.7456 31.1805 12.2446C32.1567 12.0213 32.6377 11.9039 33.614 11.6806C33.614 12.1787 33.6169 12.4278 33.6169 12.9145C33.3277 12.9832 33.1817 13.0176 32.8897 13.0834C32.9126 17.209 32.9326 21.3403 32.9555 25.4659C33.2475 25.3943 33.3935 25.3628 33.6913 25.2912C33.6913 25.7608 33.6942 25.9984 33.6942 26.4794C32.715 26.717 32.2254 26.8315 31.2377 27.0606C31.2349 26.5824 31.2349 26.3419 31.2291 25.8724C31.524 25.8037 31.6729 25.7693 31.9678 25.6978C31.9649 24.5354 31.9592 23.9685 31.9563 22.8434C31.6872 22.8978 31.4238 22.9321 31.1776 22.9378C30.7081 22.9407 30.2987 22.8061 30.0038 22.4168C29.4942 21.7411 29.4942 20.3869 29.4913 18.8237C29.4913 17.2033 29.4884 16.393 29.4827 14.6953V13.8679C28.9874 13.9767 28.7441 14.0339 28.2516 14.1427L28.2573 14.1456ZM140.753 9.47606C137.171 9.37013 133.607 9.1554 130.062 8.80039C124.826 8.30223 119.604 7.55213 114.422 6.6102V9.03229C100.402 5.84578 86.1127 2.07236 71.6488 2.07236C57.185 2.07236 43.268 5.79138 29.3911 8.9464L28.8929 9.05233V6.61306C23.1755 7.64947 17.4037 8.46542 11.5976 8.96072C8.60577 9.21266 5.59104 9.39017 2.58489 9.47892V8.46542C11.7951 8.23352 20.8451 7.07687 29.9093 5.40202V7.78975C43.6087 4.67196 57.5228 1.07031 71.6488 1.07031C85.7748 1.07031 99.709 4.65191 113.426 7.76971V5.39916C122.476 7.07401 131.543 8.23065 140.756 8.46256V9.47606H140.753ZM102.435 23.519C102.44 19.3877 102.446 15.2593 102.455 11.1337C102.08 11.0478 101.891 11.002 101.513 10.9161C101.158 14.9558 100.783 18.9926 100.416 23.0323C101.224 23.227 101.633 23.3215 102.437 23.519H102.435ZM104.33 23.9771C104.33 24.2147 104.33 24.3321 104.327 24.5697C104.324 25.6147 104.324 26.1473 104.324 27.2552C103.932 27.155 103.737 27.1092 103.345 27.0147C103.348 26.1616 103.348 25.7522 103.348 24.9333C101.788 24.5554 101.009 24.3665 99.4485 23.9972C99.4456 24.816 99.4456 25.2282 99.4456 26.0785C99.0534 25.9869 98.8587 25.9411 98.4608 25.8495C98.4636 24.7473 98.4636 24.2147 98.4693 23.1726V22.58C98.8358 22.663 99.019 22.7059 99.3855 22.7918C99.7949 18.3485 100.236 13.9137 100.634 9.46747C101.759 9.728 102.32 9.8597 103.442 10.1231V10.7501C103.434 15.0818 103.425 19.4192 103.419 23.7567C103.789 23.8425 103.972 23.8884 104.336 23.9771H104.33ZM70.1315 16.4474C70.5294 16.4389 70.7298 16.436 71.1335 16.4303V20.0147C69.3928 20.0262 68.5282 20.0634 66.7989 20.1722V18.9984C67.0995 18.9783 67.2456 18.9669 67.5462 18.9554C67.549 14.9157 67.5548 10.8818 67.5634 6.8421C67.2685 6.85642 67.1167 6.86501 66.8218 6.88219V5.65396C68.5511 5.55089 69.4128 5.5194 71.1364 5.50795V9.23556C70.7384 9.23843 70.5351 9.24415 70.1372 9.24988C70.1372 8.2736 70.1372 7.7783 70.1401 6.75049C69.5073 6.76194 69.1924 6.77053 68.5625 6.79916C68.5597 8.56849 68.5539 9.39589 68.5539 11.0307C69.2611 11.002 69.6133 10.9906 70.3176 10.9791L70.3147 12.0928C69.6075 12.1043 69.2611 12.1157 68.5539 12.1444C68.5511 14.8299 68.5511 16.0953 68.5454 18.9039C69.1809 18.8753 69.4987 18.8695 70.1343 18.8524V16.4446L70.1315 16.4474ZM37.5907 11.9783C37.9457 11.8953 38.1289 11.8523 38.484 11.7693C38.4954 13.3754 38.5011 14.1427 38.5126 15.6573C38.9048 15.5628 39.1024 15.5198 39.4917 15.4254C39.4803 13.6847 39.4717 12.8 39.4602 10.9247C39.4602 10.6785 39.4574 10.5525 39.4574 10.3035C37.5707 10.7472 36.623 10.9705 34.7392 11.4172C34.7392 11.6662 34.7392 11.7922 34.742 12.0356C34.7535 13.9166 34.7592 14.8012 34.7706 16.5448C35.1629 16.4532 35.3547 16.4102 35.7498 16.3157C35.7383 14.7984 35.7297 14.0282 35.7212 12.4221C36.0762 12.3362 36.2565 12.2904 36.6173 12.2102C36.6459 16.3272 36.6717 20.447 36.7032 24.564C36.4111 24.6356 36.2651 24.67 35.9731 24.7415C35.9731 25.2139 35.9731 25.4515 35.9817 25.9297C36.9551 25.692 37.4475 25.5747 38.421 25.337C38.4124 24.856 38.4124 24.6184 38.4095 24.1489C38.1175 24.2205 37.9743 24.2548 37.6823 24.3264C37.6508 20.2094 37.6193 16.0953 37.5907 11.9783ZM48.1322 20.1436C47.7457 20.2266 47.551 20.2695 47.1645 20.3554C47.1645 19.4994 47.1617 19.0757 47.1617 18.2339C47.1588 17.8474 47.1588 17.4438 47.1903 17.0029C47.2189 16.5562 47.2819 16.0753 47.4079 15.5628C47.531 15.0675 47.7085 14.5579 47.8889 14.0397C48.0578 13.5587 48.2324 13.0634 48.3584 12.5709C48.4758 12.09 48.5474 11.6176 48.5588 11.2053C48.5703 10.8388 48.5359 10.521 48.4529 10.3006C48.3813 10.1116 48.2611 9.98853 48.1265 9.90264C47.969 9.81103 47.7858 9.76808 47.6283 9.75377C47.4136 9.73373 47.2218 9.75663 47.0414 9.79957C46.8926 9.83107 46.8153 9.84824 46.6664 9.8826C46.6664 9.39303 46.6664 9.14968 46.6635 8.64865C46.8124 8.61716 46.8926 8.59998 47.0414 8.56849C47.2791 8.51409 47.5425 8.47687 47.8602 8.51409C48.1151 8.53699 48.4013 8.61429 48.6619 8.77462C48.9453 8.94926 49.1944 9.22411 49.3519 9.64784C49.495 10.0315 49.5494 10.5153 49.5351 11.0507C49.5179 11.5746 49.4349 12.153 49.2917 12.7198C49.1572 13.2523 48.9682 13.7906 48.785 14.3145C48.6161 14.7955 48.4443 15.2622 48.3384 15.6945C48.241 16.1039 48.1838 16.5018 48.1609 16.8855C48.1322 17.272 48.138 17.6585 48.138 18.0278V20.1493L48.1322 20.1436ZM48.1351 21.9072C48.1351 22.3738 48.138 22.6143 48.138 23.0924C47.7515 23.1755 47.5568 23.2241 47.1703 23.31C47.1703 22.8291 47.1703 22.5914 47.1674 22.1219C47.5596 22.036 47.7515 21.9902 48.138 21.91H48.1351V21.9072ZM58.8026 10.2061C59.2006 10.1517 59.401 10.1231 59.7961 10.0716C59.7989 8.86337 59.7989 8.24783 59.8046 6.95949V6.33535C58.0754 6.56439 57.2108 6.69323 55.5016 6.9738V8.20489C55.7936 8.15335 55.9425 8.13045 56.2402 8.0875C56.2374 12.1472 56.2345 16.2098 56.2345 20.2724C55.9396 20.3211 55.7907 20.3468 55.4958 20.3984V21.5751C56.4807 21.4061 56.9674 21.3231 57.9552 21.1685V19.9947L57.958 19.9918L57.2194 20.1121C57.2194 16.0523 57.2222 11.9926 57.228 7.93577C57.8607 7.83556 58.1756 7.79262 58.8083 7.701V10.2033H58.8055L58.8026 10.2061ZM64.8521 22.3824C65.2558 22.3452 65.4533 22.3309 65.8513 22.2994C65.8513 21.2057 65.8542 20.6789 65.8542 19.6483V19.0671C65.482 19.0957 65.2959 19.11 64.9265 19.1415C64.9351 14.8986 64.9437 10.6527 64.9466 6.40979V5.79139C63.8042 5.88014 63.2316 5.9374 62.0922 6.06337C61.6885 10.5726 61.2419 15.0761 60.8239 19.5853C60.4517 19.6339 60.2656 19.6569 59.8963 19.7084V20.2953C59.8963 21.3231 59.8963 21.8499 59.8934 22.9436C60.2971 22.8892 60.4889 22.8605 60.8869 22.809C60.8897 21.9673 60.8897 21.555 60.8897 20.7477C62.473 20.5472 63.266 20.4585 64.8578 20.3211C64.855 21.1256 64.855 21.535 64.855 22.3796H64.8521V22.3824ZM75.1388 17.229C74.7409 17.209 74.5433 17.2004 74.1425 17.1861V15.1018C74.1425 14.7239 74.1425 14.3288 74.174 13.8994C74.2055 13.4699 74.2685 13.0147 74.403 12.5366C74.529 12.0814 74.7122 11.629 74.9012 11.1624C75.0758 10.7272 75.2476 10.2863 75.3793 9.8282C75.5024 9.38158 75.5711 8.93495 75.5855 8.52554C75.5969 8.16481 75.5654 7.84701 75.4795 7.60652C75.4051 7.39752 75.2848 7.24292 75.1474 7.12554C74.9842 6.99384 74.8039 6.90795 74.6378 6.85355C74.4202 6.77912 74.2255 6.75908 74.0452 6.75908C73.8906 6.75049 73.8104 6.75049 73.6615 6.74762V5.51654C73.8104 5.52513 73.8906 5.52513 74.0452 5.52799C74.2857 5.52799 74.5519 5.55948 74.8726 5.674C75.1331 5.75989 75.4223 5.90877 75.6857 6.13494C75.9748 6.38402 76.2296 6.72472 76.3928 7.18566C76.536 7.6008 76.5932 8.09609 76.5789 8.62288C76.5589 9.14109 76.473 9.68792 76.327 10.2147C76.1924 10.7071 75.9949 11.1853 75.8088 11.6548C75.6341 12.0842 75.4623 12.5051 75.3536 12.9002C75.2476 13.2781 75.1904 13.6589 75.1646 14.0282C75.136 14.4033 75.136 14.7812 75.136 15.1448V17.2319L75.1388 17.229ZM95.8154 21.9787H95.8182L95.8698 21.9902L95.8927 21.9988H95.9213L95.9327 22.0016H95.9442L95.9556 22.0045L95.9785 22.0102H95.9986L96.01 22.0131H96.0215L96.0329 22.016H96.0444L96.053 22.0245H96.0759L96.0816 22.0274H96.0931L96.1045 22.0303H96.116L96.1245 22.0331H96.136L96.1446 22.036H96.1561L96.1618 22.0389H96.1732L96.1847 22.0417H96.1933L96.2047 22.0446H96.2162L96.2248 22.0475H96.2362L96.2477 22.0503H96.2563L96.2677 22.0532H96.2792L96.2849 22.056H96.2963L96.3078 22.0589H96.3164L96.3278 22.0618H96.3393L96.3507 22.0646L96.3736 22.0704H96.3965L96.408 22.0732H96.4166L96.4338 22.0761L96.4567 22.0847H96.4796L96.4939 22.0933H96.5053L96.5168 22.0961H96.5311V23.2871C95.5491 23.0667 95.0595 22.9607 94.0804 22.7517V21.5665C94.3724 21.6266 94.5213 21.6581 94.8133 21.7211C94.8133 17.6184 94.8162 13.5129 94.8219 9.40734C94.527 9.35008 94.3781 9.32146 94.0832 9.26133C94.0832 8.77176 94.0861 8.52554 94.0861 8.02166C95.7953 8.36521 96.6485 8.54845 98.3548 8.9235V9.54763C98.3548 10.8474 98.3548 11.4687 98.352 12.6969C97.9569 12.6053 97.765 12.5624 97.3671 12.4793V9.94845C96.743 9.81102 96.4309 9.74231 95.8096 9.61634C95.8068 13.7219 95.801 17.8274 95.7982 21.9387V21.953L95.8154 21.9787ZM84.7757 20.8192V21.0826C83.7822 20.9366 83.284 20.865 82.2877 20.7362V19.5624H82.3278L82.3564 19.5652H82.3679L82.3793 19.5681H82.3936L82.4165 19.571H82.428L82.4509 19.5738H82.4624L82.4853 19.5767H82.4939L82.5168 19.5796H82.5282L82.5482 19.5824H82.5568L82.5912 19.5853H82.6026L82.6227 19.5881H82.6341L82.6656 19.591H82.6742L82.6943 19.5939H82.7057L82.7372 19.5967H82.7487L82.7687 19.5996H82.7802L82.7916 19.6025H82.8031L82.826 19.6053H82.8345L82.8575 19.6082H82.8689L82.8918 19.611H82.9033L82.9319 19.6139H82.9433L82.9662 19.6168H82.9806L83.0092 19.6196H83.0206C83.0206 15.5656 83.0178 11.5059 83.0178 7.45192C82.72 7.4147 82.5712 7.39752 82.2705 7.3603V6.13208C83.2669 6.2466 83.7622 6.30959 84.7613 6.44415V7.67523C84.4607 7.63515 84.3147 7.61797 84.0141 7.57789V11.8352C84.2231 11.8638 84.329 11.8752 84.5352 11.9067C84.9618 9.86542 85.1736 8.83188 85.6002 6.56439C86.4849 6.69609 86.92 6.75621 87.7961 6.89936V8.13045C87.235 8.04456 86.9544 7.99589 86.3932 7.91286C86.0182 9.86542 85.8264 10.7787 85.4456 12.5824C86.0955 15.1448 86.7368 17.7072 87.3438 20.281H87.3581L87.3896 20.2896H87.4211L87.4354 20.2924H87.4468L87.464 20.2953H87.4783L87.4898 20.2982H87.5069L87.5184 20.301H87.5356L87.547 20.3039H87.5613L87.5728 20.3068H87.5843L87.5957 20.3096H87.61L87.6215 20.3182H87.6444L87.673 20.3211H87.6845L87.6959 20.3239H87.7074L87.7188 20.3268H87.7303L87.7417 20.3297H87.7532L87.7761 20.3325H87.7875L87.8018 20.3354H87.8104L87.8276 20.3382H87.8391L87.8505 20.3411H87.862L87.8734 20.344H87.8849L87.8963 20.3468H87.9135L87.9249 20.3497H87.9364L87.9479 20.3526H87.965L87.9765 20.3554H87.9879L88.0051 20.3583H88.0166L88.0337 20.3611H88.0452L88.0595 20.3697H88.0881L88.1025 20.3726H88.1196L88.1311 20.3812H88.1454L88.1769 20.3898H88.1912V21.5751C87.2092 21.4004 86.7253 21.3174 85.729 21.1599V19.9804C85.9609 20.0205 86.0783 20.0376 86.3102 20.0749C85.6145 17.1346 85.2509 15.7947 84.5466 12.9918C84.329 12.9603 84.2202 12.9431 84.0026 12.9174V19.7256H84.0341L84.0456 19.7313H84.0857L84.0971 19.7342H84.1086L84.1601 19.7427H84.1716L84.1945 19.7456H84.2031L84.226 19.7485H84.2374L84.2489 19.7513H84.2603L84.2804 19.7542H84.2918L84.3119 19.7571H84.3233L84.3433 19.7599H84.3548L84.3748 19.7628H84.3863L84.4063 19.7656H84.4178L84.4378 19.7685H84.4493L84.4722 19.7714H84.4808L84.5037 19.7742H84.5123L84.5352 19.7771H84.5466L84.5695 19.78H84.581L84.5924 19.7828H84.6039L84.6153 19.7857H84.6268L84.6497 19.7886H84.6611L84.6783 19.7914H84.6898L84.7184 19.7943H84.7299L84.7413 19.7971V20.0777L84.7442 20.7534L84.7757 20.8192ZM75.1417 18.9755V20.1522C74.7437 20.1321 74.5405 20.1235 74.1425 20.1092V18.9325C74.5405 18.9468 74.7437 18.9554 75.1417 18.9755ZM113.675 26.2818V27.4757C113.288 27.3898 113.094 27.3411 112.707 27.2552V26.0556C113.094 26.1501 113.288 26.1931 113.675 26.2847V26.2818Z" fill="#FBFBFB"/>
<path fill-rule="evenodd" clip-rule="evenodd" d="M90.7714 8.67477C90.1874 8.56884 89.7121 9.07273 89.7121 9.77702C89.7092 13.0151 89.7092 16.2531 89.7092 19.4883C89.7092 20.1725 90.1874 20.8224 90.7714 20.937C91.3555 21.0458 91.8279 20.5762 91.8279 19.8948C91.8279 16.6482 91.8307 13.4044 91.8307 10.1578C91.8307 9.45637 91.3526 8.77498 90.7685 8.67191L90.7714 8.67477ZM90.7714 8.05923C91.6274 8.21383 92.326 9.22447 92.326 10.2551C92.326 13.5018 92.326 16.7484 92.3231 19.995C92.3231 20.9942 91.6246 21.6928 90.7714 21.5267C89.9182 21.3607 89.2168 20.393 89.2168 19.3995V9.69113C89.2168 8.66332 89.9182 7.90749 90.7714 8.06209V8.05923Z" fill="#FBFBFB"/>
<path fill-rule="evenodd" clip-rule="evenodd" d="M140.753 33.3309C134.554 33.1734 128.37 32.6008 122.244 31.7477V34.6135C105.658 31.1579 88.7008 25.9215 71.6488 25.9215C54.5969 25.9215 37.5363 31.1951 21.0741 34.6364V31.7505C14.9416 32.6037 8.76323 33.1763 2.58203 33.3338V32.9788C8.88634 32.8184 15.1763 32.2315 21.4291 31.3411V34.1927C37.8369 30.7743 55.0807 25.5693 71.646 25.5693C88.2113 25.5693 105.492 30.7714 121.883 34.1726V31.3411C128.136 32.2344 134.426 32.8184 140.75 32.9788V33.3338L140.753 33.3309Z" fill="#FBFBFB"/>
<path fill-rule="evenodd" clip-rule="evenodd" d="M2.58203 7.39511C12.1473 7.14603 21.5723 5.86341 30.9772 4.11698V6.45032C44.3416 3.38692 57.8435 0 71.6488 0C85.4542 0 98.9589 3.36688 112.358 6.43028V4.11698C121.869 5.87772 131.044 7.14603 140.753 7.39511V7.75012C131.202 7.50104 122.066 6.26995 112.713 4.54357V6.87691C99.208 3.79346 85.6002 0.357874 71.6488 0.357874C57.6975 0.357874 44.1097 3.8135 30.6222 6.89122V4.54357C21.2888 6.26995 12.0786 7.50104 2.58203 7.75012V7.39511Z" fill="#FBFBFB"/>
<path fill-rule="evenodd" clip-rule="evenodd" d="M2.58203 8.45996L3.08019 8.96098L2.58203 9.47919V8.45996Z" fill="#FBFBFB"/>
<path fill-rule="evenodd" clip-rule="evenodd" d="M2.58203 31.2666L3.10023 31.7476L2.58203 32.2658V31.2666Z" fill="#FBFBFB"/>
<path fill-rule="evenodd" clip-rule="evenodd" d="M0 19.6494L0.49816 20.1504L0 20.6658V19.6494Z" fill="#FBFBFB"/>
<path fill-rule="evenodd" clip-rule="evenodd" d="M20.7363 14.2352C14.7154 15.1628 8.6573 15.7869 2.58203 16.0503L3.08019 15.5378C8.81763 15.2687 14.5379 14.6646 20.2181 13.8086L20.7363 14.2352Z" fill="#FBFBFB"/>
<path fill-rule="evenodd" clip-rule="evenodd" d="M2.58203 15.0559C8.6573 14.7868 14.7154 14.1483 20.7363 13.2207L20.2181 13.8076C14.5379 14.6637 8.81476 15.2677 3.08019 15.5369L2.58203 15.0559Z" fill="#FBFBFB"/>
<path fill-rule="evenodd" clip-rule="evenodd" d="M20.737 18.7587C13.8773 19.8123 6.94888 20.4879 0.0175781 20.6654L0.49856 20.1501C7.10921 19.9554 13.7027 19.3141 20.2188 18.335L20.737 18.7615V18.7587Z" fill="#FBFBFB"/>
<path fill-rule="evenodd" clip-rule="evenodd" d="M0 19.648C6.94848 19.4705 13.8569 18.7948 20.7366 17.7412L20.2184 18.3281C13.6994 19.3073 7.10594 19.9514 0.49816 20.1433L0 19.6451V19.648Z" fill="#FBFBFB"/>
<path fill-rule="evenodd" clip-rule="evenodd" d="M2.58203 15.0566L3.08019 15.5376L2.58203 16.0501V15.0566Z" fill="#FBFBFB"/>
<path fill-rule="evenodd" clip-rule="evenodd" d="M20.735 14.2341L20.2168 13.8075L20.735 13.2178V14.2341Z" fill="#FBFBFB"/>
<path fill-rule="evenodd" clip-rule="evenodd" d="M20.7363 23.2674C14.7154 24.195 8.6573 24.8191 2.58203 25.0825L3.08019 24.5672C8.81763 24.3038 14.5379 23.694 20.2181 22.8408L20.7363 23.2674Z" fill="#FBFBFB"/>
<path fill-rule="evenodd" clip-rule="evenodd" d="M2.58203 24.0891C8.6573 23.82 14.7154 23.1787 20.7363 22.2539L20.2181 22.8408C14.5379 23.694 8.81476 24.3009 3.08019 24.5672L2.58203 24.0891Z" fill="#FBFBFB"/>
<path fill-rule="evenodd" clip-rule="evenodd" d="M2.58203 24.0889L3.08019 24.567L2.58203 25.0823V24.0889Z" fill="#FBFBFB"/>
<path fill-rule="evenodd" clip-rule="evenodd" d="M20.735 23.2674L20.2168 22.8408L20.735 22.2539V23.2674Z" fill="#FBFBFB"/>
<path fill-rule="evenodd" clip-rule="evenodd" d="M20.735 18.7586L20.2168 18.332L20.735 17.7451V18.7586Z" fill="#FBFBFB"/>
<path fill-rule="evenodd" clip-rule="evenodd" d="M143.252 19.6455L142.754 20.1437L143.252 20.659V19.6455Z" fill="#FBFBFB"/>
<path fill-rule="evenodd" clip-rule="evenodd" d="M122.52 14.2293C128.54 15.1569 134.596 15.7811 140.674 16.0445L140.176 15.532C134.438 15.2629 128.718 14.6559 123.035 13.8027L122.52 14.2293Z" fill="#FBFBFB"/>
<path fill-rule="evenodd" clip-rule="evenodd" d="M140.67 15.051C134.595 14.7819 128.536 14.1434 122.516 13.2158L123.031 13.8027C128.714 14.6559 134.434 15.2629 140.172 15.532L140.67 15.051Z" fill="#FBFBFB"/>
<path fill-rule="evenodd" clip-rule="evenodd" d="M122.52 18.7558C129.376 19.8093 136.305 20.485 143.239 20.6625L142.758 20.1472C136.15 19.9525 129.557 19.3112 123.038 18.332L122.522 18.7586L122.52 18.7558Z" fill="#FBFBFB"/>
<path fill-rule="evenodd" clip-rule="evenodd" d="M143.252 19.646C136.304 19.4685 129.395 18.7928 122.516 17.7393L123.031 18.3262C129.55 19.3053 136.143 19.9495 142.751 20.1413L143.249 19.6431L143.252 19.646Z" fill="#FBFBFB"/>
<path fill-rule="evenodd" clip-rule="evenodd" d="M140.669 15.0508L140.174 15.5318L140.669 16.0471V15.0508Z" fill="#FBFBFB"/>
<path fill-rule="evenodd" clip-rule="evenodd" d="M122.52 14.2293L123.035 13.8027L122.52 13.2158V14.2293Z" fill="#FBFBFB"/>
<path fill-rule="evenodd" clip-rule="evenodd" d="M122.52 23.2644C128.54 24.192 134.596 24.8104 140.674 25.0795L140.176 24.5613C134.438 24.2979 128.718 23.6881 123.035 22.835L122.52 23.2615V23.2644Z" fill="#FBFBFB"/>
<path fill-rule="evenodd" clip-rule="evenodd" d="M140.67 24.0804C134.595 23.817 128.536 23.1728 122.516 22.248L123.031 22.835C128.714 23.6881 134.434 24.2951 140.172 24.5613L140.67 24.0804Z" fill="#FBFBFB"/>
<path fill-rule="evenodd" clip-rule="evenodd" d="M140.669 24.0811L140.174 24.562L140.669 25.0802V24.0811Z" fill="#FBFBFB"/>
<path fill-rule="evenodd" clip-rule="evenodd" d="M122.52 23.2644L123.035 22.8378L122.52 22.248V23.2644Z" fill="#FBFBFB"/>
<path fill-rule="evenodd" clip-rule="evenodd" d="M122.52 18.7556L123.035 18.329L122.52 17.7393V18.7556Z" fill="#FBFBFB"/>
<path fill-rule="evenodd" clip-rule="evenodd" d="M106.421 36.6721C105.505 37.1817 103.466 37.949 100.772 38.7106C98.9884 39.1686 96.9557 39.6783 94.7111 40.0848C94.7111 39.8844 94.4592 39.7298 93.8465 39.5752C92.6269 39.3748 90.9434 39.4263 89.6722 39.3748L80.608 39.2717C80.5565 38.8652 80.4019 38.4586 80.2015 38.0979C80.0984 37.8975 79.9953 37.6427 79.8465 37.4394L99.4952 36.7294C102.808 36.5748 105.098 36.5232 106.272 36.5748C106.524 36.5748 106.575 36.6234 106.421 36.6721ZM95.4727 41.459C99.5982 41.9715 101.379 42.1232 101.433 42.275C101.433 42.3265 101.127 42.4296 101.024 42.4296C99.959 42.7846 97.9205 43.1911 95.3753 43.4488C93.2367 43.7008 90.743 43.8038 88.0947 43.8038C87.5851 43.6492 87.127 43.5462 86.6174 43.3973C87.6367 43.1911 88.6043 42.9363 89.469 42.6815C91.098 42.1748 92.4207 41.6623 93.2853 41.2042C93.9954 41.3073 94.7626 41.4104 95.4727 41.4562V41.459ZM96.9528 46.1973C97.0502 46.1973 97.0502 46.2488 97.1017 46.2488C97.0502 46.2488 96.7982 46.3003 96.6952 46.3003C95.6759 46.5065 93.8436 46.6038 91.6019 46.5523C90.3307 46.5036 88.9565 46.4006 87.4792 46.2488C88.4469 46.1457 89.5148 45.8938 90.2792 45.4873C90.9434 45.1294 90.8919 44.823 90.1761 44.468H90.4338C92.5724 45.0263 94.8628 45.5331 96.9528 46.1973ZM92.9819 49.4038C92.2661 49.4554 91.098 49.4038 89.6178 49.2034C88.8563 49.1004 87.9917 48.9973 87.0755 48.7969C87.2816 48.6938 87.379 48.4877 87.3275 48.2357C87.2244 47.8807 86.0563 47.2165 84.934 46.6067C85.6497 46.7613 86.3082 46.8128 86.9209 46.913C88.9078 47.6746 91.1467 48.4877 92.9819 49.4038ZM89.4174 51.8488C88.9594 51.8002 88.1978 51.7 87.3275 51.4423C86.4113 51.239 85.3434 50.9355 84.224 50.5261C83.8146 50.0194 82.9986 49.358 82.2886 48.7969C82.6436 48.8942 82.9986 48.8942 83.3021 48.9458C83.7602 48.9973 84.1696 49.0488 84.5275 49.0488C86.1536 49.965 87.8342 50.8811 89.4146 51.8488H89.4174ZM86.1565 53.8901C85.7013 53.7871 84.9884 53.5294 84.2268 53.2259C83.3078 52.8194 82.237 52.3584 81.1205 51.8002C80.8628 51.4967 80.5593 51.1359 80.2043 50.6779C81.172 51.0844 82.1884 51.3879 83.0559 51.4938L83.3078 51.6971C84.6334 52.7163 85.6011 53.4263 86.1593 53.8873L86.1565 53.8901ZM82.5434 56.1805C81.8849 55.7225 81.2207 55.1098 80.608 54.5515C80.1499 54.1965 79.6919 53.7384 79.1822 53.2803C78.7757 52.8709 78.3691 52.4644 77.9626 52.1065L77.8595 51.8488L77.9082 51.9032C78.2174 52.1036 78.5724 52.3098 78.8788 52.5102C79.6919 52.9683 80.4019 53.2775 80.8599 53.4263L80.963 53.4779C81.4726 54.2967 82.1368 55.2615 82.5434 56.1777V56.1805ZM80.1499 58.5225C79.5373 57.9098 78.9761 57.1482 78.4694 56.484C78.1659 56.0259 77.808 55.5163 77.4501 55.0067C77.1467 54.5486 76.8403 54.1421 76.534 53.684L76.7401 53.8901C77.2497 54.4456 77.6563 54.8521 78.0113 55.1098C78.4694 55.5163 78.8788 55.6194 79.082 55.4648L79.2882 55.9744C79.5916 56.7875 79.9495 57.655 80.1528 58.5225H80.1499ZM76.9405 59.5932C76.6886 59.1838 76.4338 58.6771 76.179 58.1159C75.9786 57.6578 75.7724 57.1482 75.5147 56.6901C75.2113 55.9744 74.9565 55.313 74.7017 54.6517C75.0051 55.2128 75.3659 55.7683 75.7724 56.2836C76.1274 56.7388 76.4366 56.9478 76.6886 56.8419C76.7401 56.8419 76.7916 56.7904 76.8432 56.7388C76.8918 57.0967 76.9949 57.403 77.0493 57.7065C77.1495 58.3192 77.2526 58.8288 77.3013 59.3413C77.4015 59.7478 77.453 60.1544 77.453 60.5609C77.3013 60.3032 77.1495 59.9998 76.9434 59.5932H76.9405ZM74.6501 60.7098C74.6501 61.2194 74.6501 61.729 74.5986 62.2358C74.4468 61.7777 74.2951 61.3711 74.192 60.9131C73.837 59.745 73.4763 58.5196 73.2244 57.2971C73.0698 56.7875 72.9724 56.2836 72.8693 55.7683C73.0698 56.3294 73.2244 56.7875 73.379 57.1454C73.5278 57.4488 73.837 58.0615 74.2436 57.9585C74.3982 57.9585 74.5012 57.8582 74.5986 57.655C74.5986 58.1646 74.5986 58.6742 74.6501 59.1323V60.7069V60.7098ZM74.0432 56.8419C73.837 56.4869 73.6338 55.9773 73.4305 55.2672C73.2244 54.7576 73.0239 54.1965 72.8693 53.5867C73.1728 53.4321 73.5278 53.329 73.837 53.1773L73.8886 53.2832C73.9401 53.6382 73.9401 53.9417 73.9916 54.1993V55.2186C74.0432 55.9286 74.0432 56.4897 74.0432 56.8447V56.8419ZM71.5438 53.3261C70.2726 52.8194 69.053 52.3584 67.9307 51.7515C66.7569 51.0873 65.792 50.3257 65.0791 49.2578C64.4149 48.1871 64.0084 46.9159 63.7507 45.4357C63.5503 44.5768 63.4472 43.7065 63.3442 42.7903C63.8022 43.403 64.4149 43.9584 65.1793 44.4165C66.8055 45.4901 69.0472 46.2001 71.5409 46.2001C74.0346 46.2001 76.3307 45.4901 77.9597 44.4165C78.7213 43.9584 79.334 43.403 79.7921 42.7903C79.689 43.7065 79.5859 44.574 79.3827 45.4357C79.1307 46.9159 78.7242 48.1871 78.0599 49.2578C77.3499 50.3286 76.3822 51.0901 75.2084 51.7515C74.0861 52.3613 72.8149 52.8222 71.5409 53.3261H71.5438ZM71.1372 53.9388V53.893L71.4464 53.9903L71.5438 54.0419L71.6984 53.9903L72.208 53.8357V53.9388C72.1565 54.603 72.1106 55.2157 72.0076 55.8742C71.9045 56.6386 71.8014 57.1998 71.7012 57.6063C71.601 57.1998 71.498 56.6386 71.3978 55.8742C71.2947 55.2128 71.2432 54.603 71.1401 53.9388H71.1372ZM72.3111 58.6227C72.2595 59.1838 72.208 59.7478 72.1565 60.2546C72.0563 60.9188 72.0047 61.4771 71.9532 61.9867C71.8501 62.4963 71.7986 62.9028 71.747 63.2579L71.6955 63.464L71.6468 63.2579C71.5953 62.9028 71.4922 62.4963 71.4407 61.9867C71.3892 61.4771 71.2861 60.9159 71.2346 60.2546C71.183 59.7478 71.1315 59.1838 71.08 58.6227C71.0313 58.3192 71.0313 58.0157 70.9798 57.6607L71.0313 57.8668C71.183 58.4767 71.3863 58.783 71.6926 58.783C71.999 58.783 72.2023 58.4738 72.3569 57.8668L72.4084 57.6607C72.3569 58.0157 72.3569 58.3192 72.3053 58.6227H72.3111ZM69.9691 55.2672C69.7172 55.9773 69.511 56.4869 69.3564 56.8419V55.2157C69.3564 54.9065 69.408 54.5515 69.408 54.1965C69.408 53.9388 69.4595 53.6353 69.4595 53.2803H69.5111C69.8145 53.3805 70.1724 53.5323 70.5303 53.6353C70.3241 54.2423 70.1237 54.8092 69.9691 55.2644V55.2672ZM70.1695 57.3C69.8661 58.5253 69.5597 59.7478 69.2019 60.9159C69.0501 61.374 68.9499 61.7805 68.7438 62.2386C68.7438 61.729 68.6922 61.2194 68.6922 60.7126C68.6922 60.2546 68.7438 59.7507 68.7438 59.138C68.7438 58.6799 68.7953 58.1703 68.7953 57.6607C68.8984 57.8668 69.0014 57.9642 69.1503 57.9642C69.5597 58.0672 69.8661 57.4546 70.0178 57.1511C70.1695 56.7932 70.3213 56.3351 70.5274 55.774C70.4243 56.2865 70.2697 56.7932 70.1695 57.3028V57.3ZM67.8276 56.6901C67.6215 57.1482 67.4211 57.6578 67.2149 58.1159C66.9115 58.6771 66.6567 59.181 66.4534 59.5932C66.2472 59.9998 66.0468 60.3032 65.8922 60.5609C65.9438 60.1544 65.9953 59.7478 66.0468 59.3413C66.1499 58.8288 66.2472 58.3192 66.3503 57.7065C66.4018 57.403 66.4534 57.0967 66.5049 56.7388C66.5564 56.7904 66.6595 56.8419 66.7053 56.8419C66.963 56.9478 67.2665 56.7388 67.6215 56.2836C67.9822 55.7711 68.3372 55.2128 68.6922 54.6517C68.4403 55.313 68.134 55.9744 67.8276 56.6901ZM64.8759 56.484C64.3663 57.1482 63.8566 57.9098 63.244 58.5225C63.4501 57.6578 63.8051 56.7904 64.1143 55.9744L64.3147 55.4648C64.5209 55.6194 64.9274 55.5163 65.3855 55.1098C65.6947 54.8521 66.1528 54.4456 66.6624 53.8901L66.8141 53.684C66.5622 54.1421 66.253 54.5486 65.9495 55.0067C65.5945 55.5163 65.2337 56.0259 64.8787 56.484H64.8759ZM62.7916 54.5486C62.1789 55.1098 61.5147 55.7225 60.8534 56.1777C61.2628 55.2615 61.8726 54.2938 62.4337 53.4779L62.4853 53.4263H62.5368C62.9949 53.2746 63.7049 52.9683 64.5237 52.5102C64.8272 52.3098 65.1879 52.1036 65.4914 51.9032L65.5429 51.8488L65.3883 52.1065C65.0333 52.4615 64.6268 52.8681 64.2202 53.2803C63.7078 53.7384 63.201 54.1965 62.7945 54.5515L62.7916 54.5486ZM59.1756 53.2259C58.3568 53.5294 57.6983 53.7871 57.1887 53.8901C57.8014 53.4292 58.7176 52.7163 60.0918 51.7L60.3438 51.4967C61.2141 51.3908 62.2305 51.0873 63.1982 50.6807C62.7916 51.1388 62.4824 51.4967 62.2305 51.803C61.1082 52.3613 60.0918 52.8222 59.1756 53.2288V53.2259ZM59.1756 50.5261C58.0018 50.9384 56.9855 51.2419 56.0693 51.4423C55.1531 51.7 54.4374 51.8002 53.9278 51.8488C55.5597 50.8811 57.2403 49.965 58.8722 49.0488C59.2272 49.0488 59.6337 48.9973 60.0403 48.9458C60.3953 48.8942 60.756 48.8942 61.111 48.7969C60.3438 49.358 59.5307 50.0194 59.1756 50.5261ZM56.3212 48.7969C55.4051 48.9973 54.5405 49.1004 53.7274 49.2034C52.2501 49.4038 51.0791 49.4554 50.4206 49.4038C52.2014 48.4877 54.4918 47.6746 56.4243 46.913C57.0885 46.81 57.7527 46.7584 58.4112 46.6067H58.4628C57.3462 47.2194 56.1724 47.8807 56.0693 48.2357C56.0178 48.4877 56.0693 48.6938 56.3212 48.7969ZM51.792 46.5552C49.5016 46.6067 47.718 46.5065 46.6987 46.3032C46.5985 46.3032 46.3437 46.2517 46.2922 46.2517C46.2922 46.2517 46.3437 46.2001 46.3953 46.2001C48.4852 45.5359 50.7728 45.0263 52.9658 44.4709H53.2178C52.5077 44.8259 52.4562 45.1322 53.1147 45.4901C53.8304 45.8967 54.8983 46.1486 55.9147 46.2517C54.4374 46.4063 53.0116 46.5093 51.792 46.5552ZM48.0272 43.4517C45.4791 43.1969 43.4435 42.7875 42.3212 42.4324C42.221 42.4324 41.9662 42.3294 41.9662 42.2778C42.0177 42.1232 43.7985 41.9744 47.9241 41.4619C48.6341 41.4132 49.4014 41.3102 50.1114 41.2099C50.976 41.668 52.3016 42.1805 53.9278 42.6873C54.7981 42.9392 55.763 43.1969 56.7822 43.403C56.2726 43.5519 55.8145 43.6549 55.3049 43.8095C52.6566 43.8095 50.1601 43.7065 48.0243 43.4545L48.0272 43.4517ZM42.6304 38.7134C39.9306 37.9519 37.8922 37.1846 36.9245 36.675C36.7756 36.6234 36.8729 36.5776 37.1306 36.5776C38.3044 36.5261 40.5404 36.5776 43.9016 36.7322L63.2984 37.4423C63.1982 37.6484 63.0464 37.8488 62.9433 38.0549C62.7429 38.4099 62.5883 38.8165 62.5368 39.2746L53.6758 39.3776C52.4018 39.4292 50.7728 39.3776 49.5045 39.578C48.9433 39.7326 48.6341 39.8872 48.6856 40.0877C46.4468 39.6811 44.3597 39.1715 42.6304 38.7134ZM58.4112 43.7036C58.6174 43.7036 58.8722 43.7552 59.127 43.8067C60.3466 43.9098 61.572 44.0071 62.7945 44.0071C62.8947 44.5167 62.9433 45.0263 63.0464 45.4873C62.5368 45.5875 62.1303 45.639 61.7237 45.6877C60.1977 45.8423 58.7204 45.8423 57.392 45.7392C55.9147 45.5846 54.6951 45.3298 53.9822 45.1265C53.7302 45.0235 53.7818 44.9748 53.8848 44.9204C54.801 44.5682 56.0206 44.3134 56.9883 44.0558L58.4141 43.7008L58.4112 43.7036ZM62.4853 40.7003C62.5368 41.5678 62.6399 42.4324 62.7429 43.2971C61.5691 43.2971 60.3466 43.2455 59.23 43.0909C57.4979 42.8905 55.7687 42.5298 54.1368 42.0259C52.711 41.5678 51.4914 41.1097 50.621 40.7003C50.5695 40.7003 49.7564 40.2938 49.8079 40.2423C50.4722 40.1392 51.7949 40.1392 53.7274 40.0877L62.4337 39.9388V40.0877C62.4337 40.2938 62.4337 40.4999 62.4853 40.7003ZM59.9916 48.2901C58.5658 48.4447 57.4435 48.3875 56.8881 48.2901C57.8043 47.6259 59.1785 47.0648 60.2979 46.5093C60.8076 46.4578 61.2656 46.4578 61.7695 46.4063C62.1818 46.3547 62.6885 46.2517 63.1982 46.2001C63.2984 46.6582 63.4014 47.0648 63.5532 47.4713C62.3793 47.8807 61.2112 48.1355 59.9887 48.2901H59.9916ZM59.7397 50.8353C60.1462 50.3744 61.572 49.3065 62.3851 48.7482L62.7429 48.4447C63.0979 48.3903 63.453 48.2901 63.7564 48.1355C63.9626 48.5936 64.163 49.0002 64.3691 49.4067C62.9949 50.1224 61.0595 50.8353 59.7368 50.8353H59.7397ZM64.1658 51.9061C63.4043 52.3613 62.7458 52.6676 62.3335 52.765C62.6427 52.3584 63.201 51.7515 64.0141 50.8353L64.7299 50.0222H64.7785C65.0362 50.3257 65.3397 50.6321 65.646 50.9384C65.1364 51.3449 64.6268 51.6484 64.1658 51.9061ZM67.4268 54.3511C67.4783 54.0419 67.5814 53.7384 67.6787 53.3805C67.7303 53.077 67.8333 52.8222 67.8849 52.5159C68.2399 52.6705 68.5491 52.8251 68.8526 52.974C68.5491 53.4836 68.2914 53.9932 67.9879 54.4513C67.6272 55.064 67.3237 55.522 67.1233 55.8255C67.172 55.4705 67.2751 54.9638 67.4268 54.3539V54.3511ZM66.1556 53.4321C65.6975 53.893 65.2881 54.2995 65.0333 54.5028C65.1364 54.1993 65.3368 53.7928 65.5945 53.2832C65.7949 52.8738 66.0526 52.4157 66.3045 51.9089L66.4591 51.6513C66.711 51.8059 67.0202 52.0063 67.2722 52.1609C66.8656 52.619 66.5106 53.0771 66.1556 53.4321ZM78.833 49.3094C79.0334 48.9515 79.2395 48.5449 79.3912 48.084C79.8006 48.2386 80.2101 48.3417 80.6681 48.4447L81.0231 48.7482C81.7904 49.3094 83.2649 50.3744 83.6227 50.8353C82.2428 50.8353 80.2129 50.0222 78.8358 49.3065L78.833 49.3094ZM77.6076 50.8382C77.9111 50.5805 78.2203 50.2255 78.4264 49.922L78.6783 50.0251L79.3884 50.8382C80.2072 51.7543 80.7655 52.3613 81.069 52.7678C80.6109 52.6705 79.9982 52.3613 79.2366 51.9089C78.727 51.5997 78.1659 51.2447 77.6047 50.8382H77.6076ZM76.2849 55.8255C76.0272 55.522 75.7237 55.064 75.3687 54.4513C75.1139 53.9932 74.8076 53.4321 74.4526 52.8738C74.8076 52.7707 75.1139 52.6218 75.4203 52.4157L75.4689 52.5188C75.572 52.828 75.6751 53.0799 75.7266 53.3834C75.8297 53.7413 75.927 54.0476 75.9843 54.3539C76.1331 54.9666 76.2362 55.4705 76.2878 55.8255H76.2849ZM76.0272 52.1094C76.2849 51.909 76.5884 51.7028 76.8432 51.4995L77.0951 51.9061C77.3528 52.4128 77.6047 52.8681 77.8109 53.2803C78.0628 53.7899 78.2689 54.1965 78.372 54.5C78.0628 54.2995 77.7078 53.893 77.2497 53.4292C76.889 53.0227 76.4366 52.5646 76.0244 52.1065L76.0272 52.1094ZM81.6301 46.4091C82.0882 46.4607 82.5978 46.4607 83.1074 46.5122C84.1782 47.0705 85.6011 47.6288 86.4657 48.293C85.9561 48.3903 84.8367 48.4476 83.408 48.293C82.0853 48.1384 80.8628 47.8349 79.6432 47.4284C79.7462 47.019 79.9009 46.5609 79.9982 46.1515C80.5593 46.2545 81.1205 46.3576 81.6301 46.4091ZM80.4047 43.3028C80.5078 42.4382 80.6109 41.5736 80.6624 40.7061C80.7139 40.5057 80.7139 40.2995 80.7139 40.0934V39.9445L89.678 40.0934C91.6076 40.1449 92.9332 40.1449 93.5459 40.248C93.6489 40.2995 92.8301 40.7061 92.7328 40.7061C91.9168 41.1155 90.6915 41.5735 89.2657 42.0316C87.588 42.5384 85.9074 42.8963 84.1753 43.0967C82.9499 43.2513 81.6816 43.3028 80.4047 43.3028ZM84.2784 43.8124C84.4788 43.7609 84.7336 43.7093 84.9884 43.7093L86.4142 44.0644C87.3819 44.322 88.6043 44.5768 89.5205 44.929C89.6207 44.9834 89.6751 45.032 89.3659 45.1351C88.7017 45.3355 87.4821 45.5932 85.9561 45.7478C84.6849 45.8509 83.2076 45.8509 81.6816 45.6963C81.2236 45.6447 80.6624 45.5417 80.1013 45.4386C80.2043 44.9834 80.2559 44.4766 80.3589 44.0128C81.6301 44.0128 82.9528 43.9613 84.2784 43.8124ZM64.6755 36.9899L64.9789 37.1903C64.8243 37.3449 64.6755 37.448 64.5209 37.5997C63.9082 38.2124 63.5016 39.1286 63.5016 40.0905C63.5016 41.0525 63.9082 41.9257 64.5209 42.5899C65.1851 43.1997 66.0497 43.6034 67.0174 43.6034C67.9851 43.6034 68.9012 43.1969 69.5111 42.5899C69.763 42.3322 69.9691 42.0288 70.1237 41.7224L71.3949 43.758L71.6984 44.2676L72.0047 43.758L73.1213 41.9257C73.2759 42.1834 73.4276 42.3838 73.6309 42.5899C74.2436 43.1997 75.1569 43.6034 76.1246 43.6034C77.0923 43.6034 77.9597 43.1969 78.6211 42.5899C79.2338 41.9257 79.6403 41.0611 79.6403 40.0905C79.6403 39.12 79.2338 38.2124 78.6211 37.5997C78.518 37.4938 78.3691 37.3936 78.2661 37.2934L78.5696 37.0872C79.0276 37.4938 79.3368 37.9547 79.5888 38.4128C79.8465 38.9224 79.9953 39.4836 79.9953 40.0905C79.9953 41.5192 79.0792 42.8934 77.6019 43.8582C76.0759 44.8803 73.9372 45.493 71.5409 45.493C69.1446 45.493 67.0632 44.8803 65.5372 43.8582C64.0599 42.8963 63.1438 41.5192 63.1438 40.0905C63.1438 39.4836 63.2926 38.9224 63.5503 38.3613C63.8022 37.8517 64.2145 37.3936 64.6726 36.987L64.6755 36.9899ZM69.8689 40.0934C69.8689 40.8607 69.5139 41.5736 69.0043 42.0803C68.4947 42.5928 67.7789 42.8991 67.0174 42.8991C66.2558 42.8991 65.5401 42.5956 65.0305 42.0803C64.5209 41.5736 64.2174 40.8607 64.2174 40.0934C64.2174 39.2803 64.5209 38.5703 65.0305 38.0607C65.5401 37.551 66.2501 37.2418 67.0174 37.2418C67.7847 37.2418 68.4947 37.551 69.0043 38.0607C69.5139 38.5703 69.8689 39.2803 69.8689 40.0934ZM72.7205 41.2157L71.7012 42.9449L70.6305 41.2157L71.498 41.8284L71.7012 41.983L71.9074 41.8284L72.7205 41.2157ZM78.1172 38.0607C78.6268 38.5703 78.9303 39.2803 78.9303 40.0934C78.9303 40.8607 78.6268 41.5736 78.1172 42.0803C77.6076 42.5928 76.8918 42.8991 76.1303 42.8991C75.3172 42.8991 74.653 42.5956 74.1434 42.0803C73.6338 41.5736 73.2788 40.8607 73.2788 40.0934C73.2788 39.2803 73.6338 38.5703 74.1434 38.0607C74.653 37.551 75.3172 37.2418 76.1303 37.2418C76.8918 37.2418 77.6076 37.551 78.1172 38.0607ZM62.5883 34.6451C65.6431 34.4418 68.6493 34.2386 71.7012 34.2386C74.7532 34.2386 77.7622 34.4447 80.7655 34.6451L77.6591 36.8868C77.201 36.6807 76.6399 36.5318 76.1303 36.5318C75.1626 36.5318 74.2464 36.9384 73.6366 37.6026C72.9753 38.2153 72.6174 39.1314 72.6174 40.0934V40.4541L71.7012 41.1183L70.5331 40.2995V40.0934C70.5331 39.1314 70.1753 38.2153 69.5139 37.6026C68.9012 36.9384 67.9879 36.5318 67.0202 36.5318C66.5622 36.5318 66.1041 36.632 65.646 36.8353L62.5912 34.6451H62.5883ZM106.275 35.8705C105.101 35.8189 102.813 35.922 99.4494 36.0193L79.2882 36.7866L79.1336 36.6836L81.9851 34.648L82.7524 34.0897L81.7847 34.0382C78.4264 33.7805 75.0624 33.5801 71.7012 33.5801C68.3401 33.5801 64.9303 33.7805 61.5691 34.0382L60.6014 34.0897L61.4145 34.648L64.0628 36.5862C64.0112 36.6349 63.9597 36.7408 63.8566 36.7866L43.8987 36.0193C40.5376 35.9191 38.3016 35.8189 37.0762 35.8705C34.9862 36.0193 34.8374 36.4316 36.6181 37.3478C37.5858 37.8059 39.6758 38.6189 42.4214 39.3834C44.1507 39.8414 46.1405 40.3511 48.2762 40.7576C48.1732 40.7576 48.0243 40.7576 47.8697 40.8091C43.4406 41.3187 41.1503 41.5764 40.9441 42.1318C40.7895 42.4897 41.0987 42.7445 41.7572 42.9993C42.7764 43.3543 45.0182 43.8124 47.9728 44.1731C48.7859 44.2218 49.6505 44.3249 50.5666 44.3764C47.1568 45.241 45.4247 45.7507 45.3245 46.2603C45.2214 46.5637 45.5306 46.8214 46.1404 46.9245C47.1024 47.1249 49.1409 47.331 51.7891 47.228C52.4533 47.228 53.2149 47.1764 53.9249 47.1249C52.6022 47.686 51.228 48.1957 50.057 48.8083C48.5339 49.6214 48.5339 49.9764 50.1086 50.131C50.8243 50.1826 52.147 50.131 53.8276 49.9306C54.7437 49.776 55.763 49.6214 56.828 49.4181C54.947 50.4889 53.7245 51.2018 53.2149 51.6599C52.6022 52.221 52.9114 52.6276 53.7245 52.576C54.2341 52.576 55.0988 52.4214 56.221 52.1695C57.0341 51.9633 58.0018 51.6599 59.021 51.3564C59.0726 51.4051 59.1241 51.4566 59.2272 51.511C57.8988 52.4758 56.9855 53.1858 56.5274 53.5952C55.3593 54.666 55.4051 54.9724 56.8309 54.7175C57.3433 54.6145 58.2595 54.3625 59.4276 53.8501C60.0403 53.6496 60.653 53.3404 61.363 52.9854C61.2141 53.3404 61.2628 53.5466 61.5176 53.5981C61.0595 54.3654 60.5499 55.127 60.1949 55.94C60.0918 56.1462 59.9372 56.4497 59.9887 56.7073C60.0403 57.0623 60.3953 57.1654 60.7045 57.0623C61.363 56.8047 62.6885 55.6366 63.2468 55.127C63.453 54.9208 63.7049 54.6689 63.9626 54.4627C63.7564 54.9208 63.6076 55.3274 63.453 55.7396C63.1495 56.5527 62.5368 58.0816 62.4853 58.8975C62.4853 59.1495 62.5368 59.3556 62.7429 59.4558C63.0979 59.6619 63.5045 59.2554 63.7049 59.0464C64.3176 58.385 64.9303 57.6235 65.437 56.9106C65.5916 56.7102 65.7405 56.4525 65.9466 56.2464C65.8436 56.7073 65.7405 57.1654 65.6431 57.5748C65.5401 58.2333 65.437 58.8002 65.3855 59.2554C65.2824 59.765 65.1851 60.5781 65.2309 61.0877C65.2824 61.6488 65.7405 61.8493 66.1499 61.4427C66.5049 61.0877 66.8599 60.372 67.0661 59.9139C67.318 59.5073 67.5757 58.9977 67.8276 58.385L68.0853 57.8239C68.0853 58.2848 68.0853 58.74 68.0337 59.1495V61.8979C68.0853 62.2014 68.0853 62.4075 68.0853 62.6137C68.1883 63.0718 68.4403 63.7302 69.0014 63.2264C69.1045 63.0718 69.2018 62.92 69.3049 62.7654C69.3564 62.6623 69.408 62.4619 69.5111 62.3073C69.6141 61.9523 69.7172 61.5973 69.8661 61.1392C70.0722 60.475 70.2211 59.8108 70.4272 59.1523C70.4787 59.5589 70.5303 59.9654 70.5303 60.3204C70.6305 60.9846 70.682 61.5973 70.7822 62.1012C70.8338 62.6137 70.8853 63.0718 70.9884 63.4296C71.0399 63.7331 71.0886 64.0366 71.1916 64.1912C71.2947 64.5004 71.498 64.7008 71.7012 64.7008C71.9045 64.7008 72.1106 64.5004 72.2109 64.1912C72.2624 64.0366 72.3655 63.7331 72.417 63.4296C72.4685 63.0746 72.5716 62.6165 72.6174 62.1012C72.6689 61.5944 72.772 60.9846 72.8235 60.3204C72.8751 59.9654 72.9266 59.5589 72.9781 59.1523C73.1299 59.8108 73.3331 60.475 73.5364 61.1392C73.6395 61.5973 73.7941 61.9523 73.8943 62.3073C73.9458 62.4619 74.0489 62.6623 74.0976 62.7654C74.1491 62.92 74.2522 63.0746 74.4039 63.2264C74.9135 63.7331 75.217 63.0718 75.2685 62.6137C75.3201 62.4075 75.3201 62.2043 75.3201 61.8979C75.3716 61.5944 75.3716 61.1822 75.3716 60.7241C75.3716 60.266 75.3716 59.7049 75.3201 59.1495C75.3201 58.74 75.3201 58.2848 75.2685 57.8239L75.572 58.385C75.8297 58.9977 76.0816 59.5073 76.2878 59.9139C76.5397 60.372 76.8947 61.0877 77.2554 61.4427C77.662 61.8493 78.0685 61.6488 78.1716 61.0877C78.2231 60.5781 78.0685 59.765 78.017 59.2554C77.9139 58.7973 77.8653 58.2333 77.7135 57.5748C77.662 57.1683 77.5589 56.7102 77.4559 56.2464C77.6105 56.4525 77.7651 56.7073 77.9139 56.9106C78.4751 57.6263 79.0362 58.3879 79.646 59.0464C79.9037 59.2554 80.3045 59.6619 80.6653 59.4558C80.8199 59.3556 80.9172 59.1523 80.9172 58.8975C80.8657 58.0787 80.2559 56.5527 79.9495 55.7396C79.7978 55.3302 79.5945 54.9208 79.4428 54.4627C79.6947 54.6689 79.9009 54.9208 80.1528 55.127C80.7139 55.6366 82.0366 56.8047 82.6951 57.0623C83.0043 57.1654 83.3078 57.0623 83.3593 56.7073C83.4109 56.4497 83.3078 56.1462 83.2076 55.94C82.8497 55.127 82.343 54.3654 81.8334 53.5981C82.1368 53.5466 82.1884 53.3404 82.0338 52.9854C82.6923 53.3404 83.3565 53.6496 83.9176 53.8501C85.0915 54.3625 86.0591 54.6173 86.5172 54.7175C87.943 54.9752 88.0432 54.666 86.8722 53.5952C86.4142 53.1858 85.498 52.473 84.1753 51.511C84.2268 51.4566 84.2784 51.4051 84.327 51.3564C85.3978 51.6599 86.314 51.9662 87.1299 52.1695C88.2465 52.4214 89.1626 52.576 89.678 52.576C90.4911 52.6276 90.7945 52.221 90.1847 51.6599C89.6236 51.2018 88.4555 50.486 86.5716 49.4181C87.6424 49.6243 88.6616 49.7789 89.5778 49.9306C91.2555 50.131 92.5839 50.1826 93.2424 50.131C94.8228 49.9764 94.8228 49.6214 93.3455 48.8083C92.1716 48.1957 90.7974 47.686 89.426 47.1249C90.1876 47.1764 90.9033 47.228 91.6134 47.228C94.2616 47.331 96.3001 47.1249 97.2162 46.9245C97.8804 46.8214 98.1324 46.5666 98.0808 46.2603C97.9835 45.7507 96.197 45.241 92.8387 44.3764C93.7549 44.3249 94.6195 44.2218 95.4354 44.1731C98.3385 43.8153 100.629 43.3572 101.645 42.9993C102.309 42.7416 102.561 42.4897 102.458 42.1318C102.258 41.5735 99.9676 41.3187 95.4813 40.8091C95.381 40.7576 95.2293 40.7576 95.0747 40.7576C97.2649 40.3511 99.2518 39.8414 100.984 39.3834C103.732 38.6161 105.771 37.8059 106.784 37.3478C108.516 36.4316 108.362 36.0193 106.278 35.8705H106.275Z" fill="#FBFBFB"/>
<path fill-rule="evenodd" clip-rule="evenodd" d="M41.7735 16.9291V16.7831L41.7449 13.2387V12.6146L41.742 12.3025C41.7391 11.6011 42.203 10.8997 42.7841 10.7651C43.3596 10.6363 43.8377 11.1172 43.8434 11.8187V12.1222L43.8463 12.9352V13.0154L43.8492 13.734V13.7999L43.852 14.5614V14.6101L43.8549 15.3287V15.4117L43.8578 16.0874V16.1303L43.8606 16.7688V16.849L43.8635 17.2269V17.5819L43.8663 18.2833L43.8864 21.5729C43.8893 22.2571 43.4254 22.9357 42.8471 23.0731C42.2745 23.2077 41.8021 22.7524 41.7964 22.0711L41.7649 16.9577V16.9263L41.7735 16.9291ZM42.7755 9.53115C41.6618 9.78882 40.7543 11.1745 40.7657 12.5287L40.7944 16.9291C40.8058 18.7214 40.8173 20.5136 40.8344 22.3058C40.843 23.6199 41.7592 24.5246 42.8643 24.2612C43.9751 23.9921 44.8713 22.6637 44.8655 21.3524L44.8455 16.9291C44.834 15.1512 44.8255 13.3761 44.8226 11.5982C44.814 10.244 43.895 9.27634 42.7755 9.52829V9.53115Z" fill="#FBFBFB"/>
<path fill-rule="evenodd" clip-rule="evenodd" d="M20.7363 14.2342C14.7125 15.1618 8.6573 15.7859 2.58203 16.0493V15.0559C8.6573 14.7868 14.7097 14.1426 20.7363 13.2207V14.2342Z" fill="#FBFBFB"/>
<path fill-rule="evenodd" clip-rule="evenodd" d="M20.7363 23.2644C14.7125 24.192 8.6573 24.8161 2.58203 25.0824V24.0832C8.6573 23.8198 14.7097 23.1757 20.7363 22.248V23.2615V23.2644Z" fill="#FBFBFB"/>
<path fill-rule="evenodd" clip-rule="evenodd" d="M122.52 14.2293C128.54 15.1569 134.596 15.7753 140.674 16.0445V15.051C134.599 14.7819 128.54 14.1377 122.52 13.2158V14.2293Z" fill="#FBFBFB"/>
<path fill-rule="evenodd" clip-rule="evenodd" d="M122.52 23.2643C128.54 24.1891 134.596 24.8104 140.674 25.0795V24.0803C134.599 23.8112 128.54 23.1727 122.52 22.2451V23.2643Z" fill="#FBFBFB"/>
<path fill-rule="evenodd" clip-rule="evenodd" d="M122.52 18.7547C129.376 19.8054 136.305 20.484 143.236 20.6615H143.256V19.648C136.308 19.4647 129.399 18.7919 122.52 17.7412V18.7547Z" fill="#FBFBFB"/>
<path fill-rule="evenodd" clip-rule="evenodd" d="M20.7366 18.7576C13.8741 19.8083 6.94848 20.4868 0.0171783 20.6643H0V19.6451C6.94848 19.4705 13.8569 18.7948 20.7366 17.7412V18.7547V18.7576Z" fill="#FBFBFB"/>
<path fill-rule="evenodd" clip-rule="evenodd" d="M89.7104 14.5609V9.70816L89.7132 9.67667V9.64518L89.7161 9.61368V9.58219L89.7276 9.55356L89.7361 9.49058L89.7447 9.46195L89.7533 9.43045V9.40182L89.7648 9.37319L89.7762 9.3417L89.7848 9.31307L89.7934 9.29017L89.8278 9.20714L89.8507 9.15847L89.8621 9.12984L89.8793 9.10694L89.8908 9.08403L89.9051 9.06399L89.9366 9.01532L89.9681 8.97524L89.9824 8.95233L90.0368 8.89794L90.0539 8.8779L90.1341 8.81491L90.157 8.79773L90.1771 8.78056L90.1971 8.7691L90.22 8.75765L90.24 8.7462L90.3116 8.71184L90.3317 8.70325L90.3803 8.68894H90.3832L90.4061 8.68035H90.429L90.4519 8.6689H90.4748L90.5034 8.66031H90.5263L90.5779 8.65745H90.6065L90.6351 8.65458H90.658L90.6867 8.65745L90.7955 8.67462L90.8241 8.68321L90.847 8.6918H90.8499L90.8728 8.69753L90.9272 8.71471L90.9501 8.72616L90.9787 8.73475L91.0016 8.7462L91.0302 8.75765L91.0531 8.77483L91.0818 8.78628L91.1991 8.86644L91.222 8.88648L91.245 8.90366L91.2679 8.9237L91.2879 8.94375L91.3366 8.98383L91.3566 9.00673L91.3766 9.02677L91.3967 9.04967L91.4196 9.07258L91.4597 9.12125L91.4769 9.14415L91.5169 9.19282L91.5312 9.22146L91.5513 9.24436L91.6458 9.41041L91.6572 9.43904L91.6744 9.47053L91.6859 9.49916L91.6973 9.53066L91.7088 9.55929L91.7202 9.59078L91.7317 9.61941L91.7374 9.6509L91.7488 9.6824L91.7975 9.87135L91.8061 9.93434V9.9687L91.8204 10.0632V19.992L91.8175 20.0235V20.055L91.809 20.0836V20.1151L91.8004 20.1438L91.7918 20.1753V20.2039L91.7574 20.3155L91.746 20.3442L91.7374 20.3671L91.7259 20.3957L91.7145 20.4186L91.7059 20.4472H91.703L91.6687 20.5188L91.6572 20.5389L91.6257 20.5847L91.6143 20.6047H91.6114L91.6 20.6248L91.5828 20.6448L91.5627 20.6648L91.5312 20.7049L91.4969 20.7393L91.3996 20.8194L91.3795 20.8309L91.3566 20.8452L91.3165 20.8681L91.2936 20.8796L91.2707 20.8881L91.2507 20.8996L91.1562 20.9311H91.1333L91.1047 20.9425L91.056 20.9511H91.0274L91.0045 20.9597H90.8728L90.764 20.9425C90.1828 20.8337 89.7047 20.1753 89.7047 19.4967V14.5667L89.7104 14.5609ZM90.7726 7.43495C89.6474 7.23168 88.7227 8.25663 88.7227 9.6051V19.3106C88.7227 20.6162 89.6474 21.8988 90.7726 22.1164C91.8949 22.3368 92.8167 21.4063 92.8167 20.0922V10.3437C92.8196 8.98955 91.8977 7.63536 90.7726 7.43495Z" fill="#FBFBFB"/>
<path d="M36.6552 61.2183L31.8254 64.2702L30.872 63.4715L34.3706 59.3029L33.1337 58.2637L25.209 67.7058L26.4458 68.7422L29.89 64.6367L30.7718 65.3753L29.0826 70.9496L30.4025 72.0604L32.4237 65.5901L32.3722 65.6216L32.438 65.5443L32.4237 65.5929L37.9264 62.289L36.6552 61.2183Z" fill="#FBFBFB"/>
<path d="M75.6851 73.5153H75.751C76.4581 73.4609 76.9878 73.1946 77.3457 72.7165C77.7007 72.2384 77.8524 71.5913 77.7951 70.7754L76.4009 70.8899C76.4295 71.2993 76.378 71.6228 76.2491 71.8662C76.1174 72.1038 75.9228 72.2327 75.6622 72.2498L75.5906 72.2556C75.3273 72.2727 75.1154 72.1725 74.9551 71.9521C74.7976 71.7345 74.7031 71.4196 74.6745 71.013L73.2773 71.0932C73.3375 71.912 73.5722 72.5304 73.9931 72.9541C74.4168 73.3807 74.978 73.5697 75.6823 73.5181L75.6851 73.5153Z" fill="#FBFBFB"/>
<path d="M31.0617 58.1723L32.2154 57.1703L28.2903 52.6582L27.1365 53.6545L28.5709 55.3065L20.4199 62.3924L21.4792 63.6091L29.6302 56.5261L31.0617 58.1723Z" fill="#FBFBFB"/>
<path d="M26.168 51.5938C26.4285 51.1357 26.5316 50.6547 26.4829 50.1365C26.4343 49.624 26.2396 49.0944 25.8874 48.5562C25.5353 48.0122 25.1345 47.6171 24.685 47.3623C24.2355 47.1103 23.7488 47.0073 23.2277 47.0588C22.7066 47.1103 22.1741 47.3136 21.6244 47.6715L16.262 51.1529C15.7209 51.5079 15.3144 51.9116 15.0567 52.3668C14.8019 52.8163 14.6931 53.3059 14.7418 53.8183C14.7847 54.3365 14.9823 54.8633 15.3344 55.4044C15.6866 55.9455 16.0874 56.3406 16.5426 56.5926C16.9978 56.8416 17.4817 56.9447 17.9999 56.8932C18.5209 56.8416 19.0535 56.6355 19.5946 56.2834L24.9569 52.802C25.5095 52.447 25.9132 52.0404 26.1709 51.5909L26.168 51.5938ZM24.6993 50.8523C24.5762 51.0699 24.3843 51.2617 24.121 51.4277L18.6755 54.9664C18.415 55.1353 18.1631 55.2326 17.914 55.2584C17.6678 55.2813 17.4359 55.2355 17.224 55.1153C17.0064 54.9979 16.8175 54.8089 16.6514 54.5541C16.4825 54.2964 16.3909 54.0445 16.3651 53.8011C16.3451 53.5549 16.3937 53.323 16.5197 53.1112C16.6428 52.8936 16.8346 52.7046 17.0952 52.5357L22.5406 49.0028C22.8011 48.8339 23.0531 48.7337 23.3021 48.7079C23.5455 48.685 23.7803 48.7308 23.9978 48.8482C24.2097 48.9656 24.4044 49.1574 24.5704 49.4122C24.7365 49.6641 24.8253 49.9189 24.851 50.1623C24.8711 50.4056 24.8224 50.6404 24.6964 50.8523H24.6993Z" fill="#FBFBFB"/>
<path d="M88.975 73.4756L91.1423 72.8944L90.7472 71.4199L84.9668 72.9659L85.3619 74.4432L87.4748 73.8764L90.2691 84.3091L91.8294 83.8911L89.0322 73.4612L88.975 73.4756Z" fill="#FBFBFB"/>
<path d="M106.632 71.1955C106.861 70.7918 106.964 70.3595 106.927 69.8929C106.893 69.4319 106.721 68.9509 106.415 68.4556L105.375 66.798C105.06 66.2912 104.7 65.9162 104.29 65.6728C103.887 65.4266 103.448 65.3207 102.988 65.3493C102.521 65.3808 102.043 65.5468 101.55 65.8589L100.213 66.6949L100.245 66.7464L99.6035 67.0757L100.213 66.6949L98.8477 67.5481L105.381 77.998L106.747 77.1448L104.213 73.0908L105.553 72.2548C106.042 71.9513 106.397 71.5992 106.635 71.1955H106.632ZM105.175 70.5141C105.089 70.683 104.954 70.8262 104.768 70.9436L103.403 71.7967L101.024 67.989L102.389 67.1329C102.575 67.0184 102.764 66.964 102.956 66.964C103.151 66.9669 103.331 67.0299 103.509 67.153C103.686 67.2761 103.844 67.4536 103.995 67.6912L104.994 69.2945C105.138 69.5178 105.224 69.7354 105.252 69.9415C105.284 70.1505 105.255 70.3395 105.178 70.5141H105.175Z" fill="#FBFBFB"/>
<path d="M97.6706 68.3564L96.1848 69.0206L97.9369 77.0398L93.2702 70.3147L91.707 71.0132L98.2032 79.6681C98.2032 79.6681 98.2146 79.6394 98.2203 79.6251L98.2547 79.7368L98.2032 79.6681C98.1688 79.7425 98.1344 79.8141 98.0886 79.8771C97.9713 80.0402 97.8052 80.1662 97.5991 80.255L96.9091 80.5642L97.5647 82.0358L98.2547 81.7265C98.6813 81.5376 99.022 81.2971 99.2682 81.0051C99.5115 80.7131 99.6719 80.3666 99.7377 79.9687C99.8093 79.5736 99.7921 79.1241 99.6891 78.6173L97.6678 68.3535L97.6706 68.3564Z" fill="#FBFBFB"/>
<path d="M42.9969 69.2988C43.3118 68.7977 43.4893 68.3082 43.5323 67.83C43.5723 67.3605 43.4779 66.9225 43.2517 66.5159C43.0198 66.1122 42.6562 65.7572 42.1609 65.4509L41.2218 64.864H41.2247L40.4975 64.4088L40.2141 64.2313L39.4582 63.7617L32.9277 74.2174L34.2934 75.0705L36.8128 71.0366L36.8386 71.0538L36.8529 71.0309L38.1641 71.8525C38.648 72.156 39.1261 72.3221 39.5899 72.3593C40.0509 72.3908 40.486 72.2934 40.8897 72.0558C41.2905 71.8239 41.6484 71.4603 41.9548 70.965L42.994 69.3045L42.9969 69.2988ZM41.8545 67.7785C41.8231 67.9904 41.7314 68.2108 41.5854 68.4484L40.5805 70.046C40.4431 70.275 40.2856 70.4439 40.111 70.5613C39.9363 70.6816 39.756 70.7388 39.5642 70.7388C39.3723 70.7388 39.1862 70.6816 38.9973 70.5642L37.6345 69.711L40.0136 65.9032L41.3764 66.7535C41.5625 66.8709 41.6971 67.0198 41.7801 67.1916C41.8631 67.3662 41.886 67.5552 41.8517 67.7728L41.8545 67.7785Z" fill="#FBFBFB"/>
<path d="M114.9 53.9983L119.095 61.8601L112.816 56.4003L111.797 57.5713L121.09 65.6506L121.972 64.64L117.812 56.8326L124.048 62.2551L125.061 61.0813L115.768 53.002L114.9 53.9983Z" fill="#FBFBFB"/>
<path d="M109.073 60.2913L112.603 64.4999L110.725 66.0688L107.2 61.8631L105.955 62.9052L113.88 72.3502L115.12 71.3081L111.718 67.2541L113.588 65.6708L116.995 69.7334L118.232 68.6999L110.307 59.2549L109.073 60.2913Z" fill="#FBFBFB"/>
<path d="M124.521 53.6433L125.38 52.3206C125.692 51.8396 125.869 51.3644 125.912 50.9034C125.952 50.4453 125.858 50.0073 125.629 49.6007C125.402 49.1942 125.045 48.8306 124.558 48.5157L122.914 47.4506C122.416 47.1271 121.932 46.9382 121.457 46.8895C120.982 46.838 120.547 46.9239 120.135 47.1472C119.728 47.3705 119.364 47.7284 119.049 48.2122L117.798 50.139L118.193 49.5349H118.199L117.801 50.139L117.314 50.8891L127.656 57.5999L128.532 56.2486L124.523 53.6433H124.521ZM119.473 50.3652L120.349 49.0167C120.469 48.8335 120.618 48.7018 120.793 48.6216C120.97 48.5414 121.159 48.5214 121.374 48.5615C121.586 48.593 121.809 48.6932 122.041 48.8421L123.63 49.8727C123.851 50.013 124.02 50.1733 124.137 50.3509C124.251 50.5284 124.306 50.7116 124.306 50.9005C124.303 51.0952 124.24 51.2785 124.12 51.4646L123.247 52.813L119.479 50.3652H119.473Z" fill="#FBFBFB"/>
<path d="M52.5072 70.8667L47.5 82.1289L48.9729 82.7837L53.9801 71.5215L52.5072 70.8667Z" fill="#FBFBFB"/>
<path d="M48.631 77.6611C48.8714 77.1171 48.9831 76.6075 48.9602 76.1323C48.9373 75.6599 48.7827 75.2361 48.4935 74.8697C48.213 74.5032 47.8036 74.1997 47.2682 73.9621L46.0228 73.4067L48.0355 68.8832L46.5639 68.2275L41.5508 79.4877L42.3639 79.8484L42.3954 79.8627L44.0673 80.6615L44.053 80.6014L44.2678 80.6959C44.7974 80.9278 45.2898 81.028 45.7565 80.9993C46.2175 80.9621 46.6326 80.8047 46.9991 80.5184C47.3655 80.2292 47.6661 79.8198 47.9038 79.2873L48.6281 77.6582L48.631 77.6611ZM47.1508 77.0284L46.4522 78.5973C46.3434 78.8406 46.2117 79.0296 46.0543 79.1785C45.8997 79.3159 45.725 79.3989 45.5361 79.4276C45.35 79.4562 45.1524 79.4276 44.9549 79.336L43.6436 78.7519L45.4015 74.8038L46.7099 75.3879C46.9103 75.4738 47.0649 75.5997 47.168 75.7629C47.2739 75.9204 47.3254 76.1094 47.3226 76.3241C47.3197 76.5417 47.2596 76.7736 47.1479 77.0312L47.1508 77.0284Z" fill="#FBFBFB"/>
<path d="M55.0466 73.4011L57.1624 73.968L54.3652 84.4008L55.9227 84.8159L58.7198 74.3831L58.6826 74.3745L58.7198 74.3831L60.827 74.9471L61.225 73.4756L55.4446 71.9238L55.0466 73.4011Z" fill="#FBFBFB"/>
<path d="M69.409 74.5661L67.9023 86.8018L69.5021 86.9988L71.0088 74.7631L69.409 74.5661Z" fill="#FBFBFB"/>
<path d="M77.4857 74.2742L74.8918 82.7944L74.3106 74.4946L72.7617 74.6005L73.6235 86.8885L74.9576 86.7969L77.5372 78.331L78.1155 86.5764L79.6615 86.4648L78.8026 74.1797L77.4857 74.2742Z" fill="#FBFBFB"/>
<path d="M66.7363 79.5674C66.3583 79.3011 65.8774 79.1322 65.299 79.0606L63.9477 78.8917L64.5489 73.9788L62.9514 73.7812L61.4512 86.0177L63.0516 86.2152L62.3358 86.1236L63.0573 86.1694L63.0516 86.2124L64.4029 86.3813C64.9784 86.4529 65.4794 86.4013 65.9146 86.2353C66.344 86.0692 66.6962 85.7972 66.9596 85.4136C67.2287 85.0299 67.3976 84.549 67.4692 83.9735L67.6868 82.1956C67.7583 81.6087 67.7097 81.0905 67.5522 80.641C67.3919 80.2001 67.117 79.8393 66.7391 79.5674H66.7363ZM66.0806 82.0267L65.8716 83.733C65.8401 83.9993 65.7686 84.2169 65.6626 84.4001C65.5567 84.5833 65.4136 84.7122 65.2389 84.7952C65.07 84.8753 64.8724 84.9011 64.6549 84.8782L63.2348 84.7007L63.7616 80.4091L65.1816 80.5837C65.4021 80.6124 65.5853 80.6868 65.7313 80.807C65.8774 80.9301 65.9833 81.0962 66.0434 81.2995C66.1007 81.5056 66.115 81.7461 66.0835 82.0209L66.0806 82.0267Z" fill="#FBFBFB"/>
</svg>
