<?xml version="1.0" encoding="UTF-8"?>
<svg id="_Слой_2" data-name="Слой 2" xmlns="http://www.w3.org/2000/svg" viewBox="0 0 549.47 870">
  <defs>
    <style>
      .cls-1 {
        fill: #fff;
      }

      .cls-2 {
        fill: #c52929;
      }
    </style>
  </defs>
  <g id="Layer_1" data-name="Layer 1">
    <path class="cls-2" d="m540.39,870H8.84c-6.18-2.93-8.18-7.75-8.18-14.58.14-192.01.11-384.02.11-576.02,0-10.89,3.32-14.27,14.01-14.27,173.46,0,346.91.03,520.36-.1,7.19,0,11.94,2.39,14.33,9.17v586.73c-1.72,4.32-4.62,7.47-9.08,9.07Z"/>
    <path class="cls-2" d="m.01,191.53c1-10.15.99-20.45,2.96-30.41,2.23-11.28,5.03-22.66,9.35-33.28,6.68-16.42,14.35-19.77,31.79-16.47,21.57,4.08,41.93,11.92,62.11,20.21,53.01,21.74,104.1,47.5,154.74,74.18.98.52,1.87,1.21,3.73,2.44-13.87,2.98-26.67,5.99-39.58,8.46-47.15,9.01-94.25,18.26-141.53,26.54-18.47,3.23-37.32,4.61-56.05,5.92-11.99.84-16.4-2.79-20.89-14.09C2.23,223.96.46,212.3.01,200.51c-.07-1.99.26-3.97,0-5.95v-3.02Zm230.64,11.98c-1.7-.89-2.38-1.35-3.13-1.61-33.19-11.66-66.27-23.64-99.64-34.76-10.4-3.46-21.54-4.77-32.4-6.76-4.7-.86-8.73,1.18-11.26,5.17-9.43,14.91-10.59,30.78-4.55,47.15,1.76,4.8,5.77,7.27,11.11,7.06,5.37-.21,10.77-.06,16.09-.64,25.01-2.74,50.02-5.52,74.99-8.62,15.94-1.98,31.82-4.54,48.79-7Z"/>
    <path class="cls-2" d="m284.93,207.15c16.98-8.73,33.89-17.63,50.97-26.17,44.29-22.13,88.72-44.02,135.62-60.19,13.09-4.51,26.83-7.2,40.4-10.15,9.31-2.02,16.22,2.1,21.06,10.19,7.3,12.19,10.78,25.62,12.92,39.44,3.51,22.73,4.25,45.46-1.44,68.01-.53,2.11-1.24,4.18-2.03,6.21-4.53,11.7-9.09,15.64-21.53,14.62-22.07-1.81-44.26-3.54-66-7.52-55.78-10.23-111.35-21.67-167-32.63-.95-.19-1.88-.41-2.83-.62-.04-.4-.09-.8-.14-1.2Zm33.12-3.98c3.16.64,4.91,1.09,6.68,1.34,26.61,3.67,53.17,7.65,79.84,10.83,17.49,2.09,35.11,3.03,52.68,4.44,6.2.5,10.47-2.49,12.46-8.14,5.43-15.43,3.97-30.4-4.03-44.61-2.64-4.69-6.85-7.43-12.56-6.67-5.48.73-11.14,1-16.36,2.64-29.09,9.15-58.13,18.52-87.08,28.13-10.28,3.41-20.27,7.69-31.63,12.05Z"/>
    <path class="cls-2" d="m276.25,194.03c5.93-13.81,11.1-27.99,17.9-41.35C336.24,69.9,403.52,20.51,494.48,2.92c4.45-.86,9.04-1.1,13.39-2.27,7.1-1.89,12.79.49,18.21,4.71,7.39,5.75,13.58,12.49,17.77,20.94,4.97,10.03,4.97,20.04-.42,29.91-5.3,9.72-13.09,17-22.87,22.02-2.22,1.14-5.21,1.48-7.73,1.2-83.62-9.21-152.07,20.34-207.98,81.5-9.72,10.62-18.37,22.21-27.51,33.36-.37-.09-.73-.17-1.09-.26Z"/>
    <path class="cls-2" d="m270.72,193.95c-5.29-6.89-10.38-13.94-15.9-20.64-30.77-37.39-67.62-66.62-113.72-82.93-33.65-11.91-68.36-14.9-103.8-11.16-3.7.39-8.09-.57-11.37-2.36-8.69-4.73-15.58-11.62-20.37-20.4C.38,46.99-.04,37.25,4.54,27.47c1.48-3.17,3.27-6.27,5.37-9.07C19.77,5.32,30.81-2.04,49.27,1.54c50.11,9.71,95.79,28.26,135.12,61.15,40.42,33.81,68.18,76.33,85.49,125.88.58,1.68.94,3.44,1.4,5.16-.19.07-.37.14-.56.21Z"/>
    <path class="cls-1" d="m398.51,386.82h-51.86c-1.28-7.07-1.95-14.09-3.87-20.76-4.36-15.14-14.14-20.63-32.85-19.27-13.4.97-22.42,9.54-24.67,23.4-2.12,13.03-.83,25.36,9.56,34.64,4.52,4.03,10.27,6.92,15.85,9.47,15.96,7.26,32.31,13.66,48.11,21.22,8.84,4.23,17.35,9.48,25.23,15.32,14.67,10.86,21.14,26.35,22.35,44.2.33,4.82.05,9.67.05,14.32-.6.34-.87.62-1.15.63-13.05.58-15.99,3.65-15.99,16.78,0,10.25.14,20.5-.11,30.74-.05,2.05-1.09,4.57-2.53,6.02-11.09,11.15-24.92,17.16-40.06,20.44-24.45,5.3-48.86,5.36-73.1-1.25-26.3-7.18-40.55-25.44-45.39-51.37-1.95-10.42-2-21.2-2.94-32.16h54.85c.44,5.88.97,11.83,1.32,17.78,1.17,20.19,13.04,31.47,33.46,31.37,4.45-.02,9.12-.33,13.31-1.71,18.04-5.92,23.43-20.19,21.48-38.24-1.47-13.59-9.09-23-21.03-28.53-11.47-5.31-23.57-9.27-35.23-14.2-9.52-4.03-19.14-8.01-28.1-13.11-18.58-10.58-30.56-26.37-33.92-47.84-2.83-18.1-2.16-36.08,4.14-53.5,6.96-19.27,20.84-31.93,39.81-38.47,27.17-9.38,54.8-9.13,81.67.92,25.2,9.42,38.03,28.95,40.45,55.48.52,5.66.75,11.35,1.16,17.69Z"/>
    <path class="cls-1" d="m103.59,582.58h-54.64v-271.08h5.59c30.77,0,61.53,0,92.29,0,39.17,0,66.78,25.08,71.06,64.12,1.71,15.64,1.93,31.16-2.48,46.34-8.16,28.02-27.6,44-55.62,49.65-10.11,2.04-20.61,2.4-30.96,2.98-8.18.46-16.41.09-25.24.09v107.91Zm.11-148.19c9.69,0,18.94.63,28.08-.14,16.68-1.39,27.66-10.66,31.15-25.96,2.6-11.41,2.32-22.98-1-34.27-3.15-10.71-9.87-18.92-21.06-20.63-12.13-1.85-24.57-1.64-37.17-2.34v83.33Z"/>
    <path class="cls-1" d="m49.73,603.86c26.24,0,52.1-.27,77.95.16,8.11.13,16.42,1.3,24.24,3.45,23.1,6.33,32.51,22.5,34.46,43.56.89,9.61.69,19.35-2.73,28.78-4.74,13.11-13.22,22.26-26.46,26.89-.78.27-1.55.61-2.31.95-.29.13-.53.38.04-.04,6.57,3.12,14.12,5.61,20.42,9.93,11.32,7.75,16.16,19.63,17.65,32.98,1.74,15.45.38,30.56-7.04,44.39-9.6,17.89-26.04,27.12-45.32,28.33-30.1,1.9-60.36,1.39-90.9,1.91v-221.28Zm44.3,188.84c10.15-.73,20.17-.83,29.98-2.32,13.18-2,21.14-10.1,22.83-23.53.6-4.79.8-9.77.23-14.55-1.35-11.25-5.93-20.58-17.56-24.59-11.51-3.97-23.39-2.52-35.48-2.6v67.59Zm.12-156.3v58.68c9.1-.57,17.85-.51,26.39-1.79,12.45-1.86,19.4-8.35,21.15-20.05.92-6.15.3-12.7-.67-18.9-1.19-7.65-6.09-12.76-13.53-15.3-10.86-3.72-22.01-2.83-33.34-2.64Z"/>
    <path class="cls-1" d="m356,714.21c.13,21.14-.2,42.28-5.13,62.96-5.04,21.07-15.49,38.51-37.14,45.77-22.18,7.43-44.98,7.49-67-.59-21.45-7.88-31.41-25.8-35.85-46.89-5.38-25.58-5.97-51.61-4.58-77.61.8-15.01,1.84-30.16,4.71-44.86,4.63-23.73,17.12-42.01,41.39-49.82,13.65-4.4,27.91-4.55,41.85-2.87,9.24,1.11,18.76,3.95,27.03,8.19,17.14,8.77,25.32,24.74,29.58,42.75,4.9,20.69,5.27,41.82,5.14,62.96Zm-44.5-.08c-.61-.01.61-.03,0-.04,0-13.75-.26-27.54-1.16-41.22-.56-8.53-2.65-17.19-5.49-25.29-3.97-11.31-11.77-15.57-24.77-15.49-11.29.07-19.52,4.95-22.92,15.95-3.03,9.79-5.12,20.1-5.86,30.31-1.95,27.29-2.07,54.68,1.01,81.9.94,8.28,3.12,16.92,6.9,24.27,8.06,15.7,33.9,16.5,42.89,1.34,3.95-6.66,6.36-14.85,7.22-22.59,1.82-16.29,1.24-32.74,2.18-49.13Z"/>
    <path class="cls-1" d="m512.28,824.63c-16.14,0-31.59-.1-47.04.09-3.05.04-3.52-1.85-4.35-3.8-9.36-21.96-18.72-43.91-28.08-65.86-.63-1.48-1.32-2.93-2.39-5.31-5.55,13.14-10.73,25.34-15.87,37.56-4.8,11.39-9.47,22.82-14.44,34.13-.61,1.4-2.68,3.04-4.1,3.06-14.95.22-29.9.13-45.67.13.85-1.9,1.43-3.35,2.12-4.74,16.86-34.14,33.68-68.3,50.66-102.38,1.65-3.31,1.62-5.96.07-9.26-15.51-33.12-30.89-66.31-46.3-99.49-.62-1.34-1.21-2.69-2.05-4.55,1.74-.14,3.13-.34,4.51-.34,13.11-.03,26.23.16,39.34-.12,3.91-.09,5.48,1.39,6.81,4.8,7.98,20.52,16.18,40.97,24.32,61.43.55,1.38,1.24,2.7,2.36,5.11,9.58-24.26,18.81-47.66,28.06-71.1h48.15c-.96,2.2-1.75,4.14-2.64,6.04-15.35,32.67-30.63,65.36-46.14,97.94-1.68,3.54-1.79,6.2-.02,9.76,16.86,33.82,33.51,67.74,50.22,101.63.73,1.48,1.4,2.99,2.47,5.27Z"/>
    <path class="cls-1" d="m193.56,547.61c0,7.72-.11,15.44.05,23.16.08,4.13-1.76,5.77-5.73,5.75-12.26-.06-24.52-.08-36.77.01-4.1.03-5.72-1.86-5.7-5.8.05-15.61.04-31.21,0-46.82-.01-3.92,1.57-5.8,5.73-5.76,12.26.14,24.52.1,36.77.02,4.07-.03,5.76,1.73,5.69,5.78-.13,7.89-.04,15.77-.04,23.66Z"/>
    <path class="cls-1" d="m444.84,547.4c0,7.72-.16,15.45.07,23.16.12,4.06-1.33,5.88-5.46,5.85-12.26-.08-24.52-.05-36.78-.02-3.68,0-5.43-1.41-5.39-5.42.16-15.78.16-31.56,0-47.33-.04-4.27,1.81-5.56,5.77-5.52,12.09.12,24.18.14,36.27-.01,4.12-.05,5.7,1.47,5.58,5.62-.21,7.88-.06,15.78-.06,23.67Z"/>
  </g>
</svg>