<?xml version="1.0" encoding="UTF-8"?>
<svg id="_Слой_1" data-name="Слой 1" xmlns="http://www.w3.org/2000/svg" viewBox="0 0 377.61 212.35">
  <defs>
    <style>
      .cls-1 {
        fill: #76b72e;
      }

      .cls-2 {
        fill: #ae6219;
      }

      .cls-3 {
        fill: #fbc205;
      }

      .cls-4 {
        fill: #8ebf29;
      }

      .cls-5 {
        fill: #1e1e1c;
      }

      .cls-6 {
        fill: #f8af07;
      }
    </style>
  </defs>
  <g>
    <g>
      <path class="cls-2" d="m291.21,19.31c-1.03,0-1.86-.83-1.86-1.86V7.43c-2.95,3.1-7.91,6.8-15.43,8.07-1.01.17-1.97-.51-2.14-1.52-.17-1.01.51-1.97,1.52-2.14,11.58-1.95,16.06-10.46,16.25-10.82.39-.76,1.26-1.16,2.09-.96.83.2,1.42.95,1.42,1.8v15.6c0,1.03-.83,1.86-1.86,1.86Z"/>
      <path class="cls-1" d="m278.52,13.36c-.39.97-.81,1.93-1.28,2.87-3.82,7.84-10.06,14.49-17.67,18.74-5.54,3.1-12.09,4.92-18.66,5.36-3.34.22-6.68.09-9.89-.41-.55-.08-.77-.75-.39-1.15.8-.84,1.53-1.73,2.2-2.67,4.23-5.92,6.38-13.81,11.91-19.01,4.04-3.79,9.19-6.04,14.64-6.84,4.37-.64,8.86-.41,13.19.4l5.51,1.8c.38.12.57.54.43.9Z"/>
      <path class="cls-4" d="m277.25,16.23c-3.82,7.84-10.06,14.49-17.67,18.74-5.54,3.1-12.09,4.92-18.66,5.36,3.52-5.66,5.76-12.58,10.77-17.29,4.04-3.79,9.19-6.04,14.64-6.84,3.61-.53,7.3-.47,10.91.03Z"/>
      <path class="cls-6" d="m327.47,71.08c0,18.48-8.67,34.41-21.15,41.65-2.57,1.49-4.55,3.79-5.87,6.46-.97,1.98-2.62,3.59-4.65,4.57-1.38.67-2.93,1.04-4.58,1.04-4.08,0-7.61-2.3-9.24-5.61-1.31-2.67-3.3-4.97-5.87-6.46-12.48-7.24-21.15-23.16-21.15-41.65s8.7-34.47,21.22-41.69c2.54-1.47,4.51-3.73,5.82-6.36,1.64-3.29,5.15-5.57,9.21-5.57,1.65,0,3.21.37,4.58,1.04,2.02.98,3.65,2.57,4.63,4.53,1.31,2.63,3.28,4.89,5.82,6.36,12.52,7.22,21.22,23.17,21.22,41.69Z"/>
      <path class="cls-3" d="m327.47,71.08c0,18.48-8.67,34.41-21.15,41.65-2.57,1.49-4.55,3.79-5.87,6.46-.97,1.98-2.62,3.59-4.65,4.57-2.03-.98-3.68-2.59-4.65-4.57-1.31-2.67-3.3-4.97-5.87-6.46-12.48-7.24-21.15-23.16-21.15-41.65s8.7-34.47,21.22-41.69c2.54-1.47,4.51-3.73,5.82-6.36.97-1.96,2.61-3.55,4.63-4.53,2.02.98,3.65,2.57,4.63,4.53,1.31,2.63,3.28,4.89,5.82,6.36,12.52,7.22,21.22,23.17,21.22,41.69Z"/>
    </g>
    <g>
      <path class="cls-2" d="m188.07,19.31c-1.03,0-1.86-.83-1.86-1.86V7.43c-2.95,3.1-7.91,6.8-15.43,8.07-1.01.17-1.97-.51-2.14-1.52-.17-1.01.51-1.97,1.52-2.14,11.58-1.95,16.06-10.46,16.25-10.82.39-.76,1.26-1.16,2.09-.96.83.2,1.42.95,1.42,1.8v15.6c0,1.03-.83,1.86-1.86,1.86Z"/>
      <path class="cls-1" d="m175.38,13.36c-.39.97-.81,1.93-1.28,2.87-3.82,7.84-10.06,14.49-17.67,18.74-5.54,3.1-12.09,4.92-18.66,5.36-3.34.22-6.68.09-9.89-.41-.55-.08-.77-.75-.39-1.15.8-.84,1.53-1.73,2.2-2.67,4.23-5.92,6.38-13.81,11.91-19.01,4.04-3.79,9.19-6.04,14.64-6.84,4.37-.64,8.86-.41,13.19.4l5.51,1.8c.38.12.57.54.43.9Z"/>
      <path class="cls-4" d="m174.11,16.23c-3.82,7.84-10.06,14.49-17.67,18.74-5.54,3.1-12.09,4.92-18.66,5.36,3.52-5.66,5.76-12.58,10.77-17.29,4.04-3.79,9.19-6.04,14.64-6.84,3.61-.53,7.3-.47,10.91.03Z"/>
      <path class="cls-6" d="m224.33,71.08c0,18.48-8.67,34.41-21.15,41.65-2.57,1.49-4.55,3.79-5.87,6.46-.97,1.98-2.62,3.59-4.65,4.57-1.38.67-2.93,1.04-4.58,1.04-4.08,0-7.61-2.3-9.24-5.61-1.31-2.67-3.3-4.97-5.87-6.46-12.48-7.24-21.15-23.16-21.15-41.65s8.7-34.47,21.22-41.69c2.54-1.47,4.51-3.73,5.82-6.36,1.64-3.29,5.15-5.57,9.21-5.57,1.65,0,3.21.37,4.58,1.04,2.02.98,3.65,2.57,4.63,4.53,1.31,2.63,3.28,4.89,5.82,6.36,12.52,7.22,21.22,23.17,21.22,41.69Z"/>
      <path class="cls-3" d="m224.33,71.08c0,18.48-8.67,34.41-21.15,41.65-2.57,1.49-4.55,3.79-5.87,6.46-.97,1.98-2.62,3.59-4.65,4.57-2.03-.98-3.68-2.59-4.65-4.57-1.31-2.67-3.3-4.97-5.87-6.46-12.48-7.24-21.15-23.16-21.15-41.65s8.7-34.47,21.22-41.69c2.54-1.47,4.51-3.73,5.82-6.36.97-1.96,2.61-3.55,4.63-4.53,2.02.98,3.65,2.57,4.63,4.53,1.31,2.63,3.28,4.89,5.82,6.36,12.52,7.22,21.22,23.17,21.22,41.69Z"/>
    </g>
    <g>
      <path class="cls-2" d="m85.15,19.31c-1.03,0-1.86-.83-1.86-1.86V7.43c-2.95,3.1-7.91,6.8-15.43,8.07-1.01.17-1.97-.51-2.14-1.52-.17-1.01.51-1.97,1.52-2.14,11.58-1.95,16.06-10.46,16.25-10.82.39-.76,1.26-1.16,2.09-.96.83.2,1.42.95,1.42,1.8v15.6c0,1.03-.83,1.86-1.86,1.86Z"/>
      <path class="cls-1" d="m72.46,13.36c-.39.97-.81,1.93-1.28,2.87-3.82,7.84-10.06,14.49-17.67,18.74-5.54,3.1-12.09,4.92-18.66,5.36-3.34.22-6.68.09-9.89-.41-.55-.08-.77-.75-.39-1.15.8-.84,1.53-1.73,2.2-2.67,4.23-5.92,6.38-13.81,11.91-19.01,4.04-3.79,9.19-6.04,14.64-6.84,4.37-.64,8.86-.41,13.19.4l5.51,1.8c.38.12.57.54.43.9Z"/>
      <path class="cls-4" d="m71.19,16.23c-3.82,7.84-10.06,14.49-17.67,18.74-5.54,3.1-12.09,4.92-18.66,5.36,3.52-5.66,5.76-12.58,10.77-17.29,4.04-3.79,9.19-6.04,14.64-6.84,3.61-.53,7.3-.47,10.91.03Z"/>
      <path class="cls-6" d="m121.41,71.08c0,18.48-8.67,34.41-21.15,41.65-2.57,1.49-4.55,3.79-5.87,6.46-.97,1.98-2.62,3.59-4.65,4.57-1.38.67-2.93,1.04-4.58,1.04-4.08,0-7.61-2.3-9.24-5.61-1.31-2.67-3.3-4.97-5.87-6.46-12.48-7.24-21.15-23.16-21.15-41.65s8.7-34.47,21.22-41.69c2.54-1.47,4.51-3.73,5.82-6.36,1.64-3.29,5.15-5.57,9.21-5.57,1.65,0,3.21.37,4.58,1.04,2.02.98,3.65,2.57,4.63,4.53,1.31,2.63,3.28,4.89,5.82,6.36,12.52,7.22,21.22,23.17,21.22,41.69Z"/>
      <path class="cls-3" d="m121.41,71.08c0,18.48-8.67,34.41-21.15,41.65-2.57,1.49-4.55,3.79-5.87,6.46-.97,1.98-2.62,3.59-4.65,4.57-2.03-.98-3.68-2.59-4.65-4.57-1.31-2.67-3.3-4.97-5.87-6.46-12.48-7.24-21.15-23.16-21.15-41.65s8.7-34.47,21.22-41.69c2.54-1.47,4.51-3.73,5.82-6.36.97-1.96,2.61-3.55,4.63-4.53,2.02.98,3.65,2.57,4.63,4.53,1.31,2.63,3.28,4.89,5.82,6.36,12.52,7.22,21.22,23.17,21.22,41.69Z"/>
    </g>
  </g>
  <g>
    <path class="cls-5" d="m1.93,196.75H0v-55.7h1.93v55.7Z"/>
    <path class="cls-5" d="m28.49,197.5c-4.86,0-8.89-1.74-12.1-5.21-3.21-3.47-4.82-7.94-4.82-13.39v-2.29c0-5.66,1.54-10.28,4.62-13.85,3.08-3.57,6.94-5.36,11.59-5.36s7.98,1.4,10.66,4.2c2.68,2.8,4.02,6.66,4.02,11.59v2.96H13.5v2.75c0,4.76,1.42,8.73,4.25,11.91,2.83,3.18,6.41,4.77,10.75,4.77,2.29,0,4.32-.36,6.11-1.07,1.79-.71,3.58-1.93,5.39-3.64l1.04,1.5c-1.52,1.64-3.27,2.91-5.25,3.8-1.98.89-4.4,1.34-7.28,1.34Zm-.71-38.17c-3.93,0-7.16,1.39-9.69,4.16-2.53,2.77-4.03,6.35-4.48,10.73h26.92v-1.18c0-4.02-1.15-7.31-3.46-9.87-2.31-2.56-5.4-3.84-9.28-3.84Z"/>
    <path class="cls-5" d="m79.09,196.75h-1.93v-24.28c0-4.95-.9-8.38-2.71-10.3-1.81-1.92-4.43-2.87-7.85-2.87-3.95,0-7.04,1.35-9.27,4.05-2.23,2.7-3.66,5.69-4.3,8.98v24.42h-1.96v-38.63h1.86l.11,8.28v.57l.11.04c1.14-2.83,2.89-5.14,5.23-6.93,2.34-1.79,5.12-2.68,8.34-2.68,3.38,0,6.06.8,8.05,2.39,1.99,1.6,3.29,4.12,3.91,7.57l.11.04c1.09-2.93,2.87-5.33,5.34-7.19,2.46-1.87,5.4-2.8,8.8-2.8,4.12,0,7.21,1.24,9.28,3.71,2.07,2.48,3.11,6.5,3.11,12.07v23.56h-1.93v-23.56c0-5.24-.9-8.87-2.71-10.89-1.81-2.02-4.43-3.02-7.85-3-4.19.07-7.47,1.54-9.84,4.41-2.37,2.87-3.66,5.79-3.87,8.77v24.28Z"/>
    <path class="cls-5" d="m113.97,176.69c0-5.76,1.54-10.41,4.62-13.96,3.08-3.55,7.17-5.32,12.26-5.32s9.22,1.77,12.3,5.3c3.08,3.53,4.62,8.19,4.62,13.98v1.5c0,5.81-1.54,10.48-4.61,14.01-3.07,3.53-7.15,5.3-12.25,5.3s-9.25-1.77-12.34-5.3c-3.08-3.53-4.62-8.21-4.62-14.01v-1.5Zm1.93,1.5c0,4.95,1.33,9.09,4,12.41,2.67,3.32,6.34,4.98,11.03,4.98s8.26-1.67,10.93-5c2.67-3.33,4-7.46,4-12.39v-1.5c0-4.83-1.35-8.93-4.03-12.3-2.69-3.37-6.34-5.05-10.96-5.05s-8.3,1.68-10.96,5.05c-2.67,3.37-4,7.47-4,12.3v1.5Z"/>
    <path class="cls-5" d="m158.96,166.83l.11.04c1.19-2.81,2.96-5.09,5.3-6.84,2.34-1.75,5.11-2.62,8.3-2.62,4.09,0,7.16,1.24,9.21,3.71,2.05,2.48,3.07,6.5,3.07,12.07v23.56h-1.93v-23.56c0-5.24-.89-8.86-2.66-10.87-1.77-2.01-4.37-3.02-7.8-3.02-3.86,0-6.9,1.3-9.14,3.91-2.24,2.61-3.73,5.54-4.46,8.8v24.74h-1.93v-38.63h1.82l.11,8.25v.46Z"/>
    <path class="cls-5" d="m212.73,177.4c0-6.26,1.26-11.16,3.78-14.69,2.52-3.53,6.12-5.3,10.78-5.3,3.09,0,5.72.68,7.87,2.04,2.15,1.36,3.86,3.24,5.12,5.64l.11-.04.29-6.93h1.64v38.13c0,5.05-1.28,8.99-3.84,11.84-2.56,2.84-6.15,4.27-10.76,4.27-1.93,0-3.89-.19-5.89-.57-2-.38-3.77-.93-5.32-1.64l.57-1.93c1.79.79,3.46,1.36,5.03,1.71,1.57.36,3.42.54,5.53.54,4.19,0,7.36-1.24,9.5-3.73,2.14-2.49,3.21-5.98,3.21-10.48v-5.39l-.11-.04c-1.26,2.05-2.98,3.67-5.16,4.87-2.18,1.2-4.8,1.8-7.87,1.8-4.64,0-8.22-1.71-10.73-5.12-2.51-3.42-3.77-8.16-3.77-14.23v-.75Zm1.96.75c0,5.45,1.04,9.72,3.11,12.8,2.07,3.08,5.2,4.62,9.39,4.62,3.5,0,6.33-.77,8.5-2.32,2.17-1.55,3.72-3.67,4.68-6.36v-17.53c-.93-2.88-2.39-5.27-4.37-7.18-1.99-1.9-4.9-2.86-8.73-2.86-4.19,0-7.33,1.64-9.43,4.93-2.09,3.28-3.14,7.66-3.14,13.14v.75Z"/>
    <path class="cls-5" d="m280.6,190.04l-.11-.04c-1.19,2.4-2.89,4.26-5.09,5.55-2.2,1.3-4.93,1.95-8.19,1.95-4.07,0-7.21-1.38-9.41-4.14-2.2-2.76-3.3-7.16-3.3-13.21v-22.03h1.93v22.1c0,5.36.95,9.25,2.84,11.69,1.89,2.44,4.52,3.66,7.87,3.66,4.09,0,7.19-.97,9.3-2.91,2.11-1.94,3.47-4.58,4.09-7.91v-26.64h1.96v38.63h-1.61l-.29-6.71Z"/>
    <path class="cls-5" d="m297.06,145.98h-1.93v-4.93h1.93v4.93Zm0,50.77h-1.93v-38.63h1.93v38.63Z"/>
    <path class="cls-5" d="m307.95,177.4c0-6.26,1.26-11.16,3.78-14.69,2.52-3.53,6.12-5.3,10.78-5.3,3.09,0,5.71.67,7.86,2.02,2.14,1.35,3.86,3.21,5.14,5.59h.11v-23.96h1.93v55.7h-1.86l-.07-5.96-.11-.04c-1.24,2.07-2.95,3.71-5.14,4.93-2.19,1.21-4.83,1.82-7.93,1.82-4.64,0-8.22-1.71-10.73-5.12-2.51-3.42-3.77-8.16-3.77-14.23v-.75Zm2,.75c0,5.45,1.03,9.72,3.09,12.8,2.06,3.08,5.18,4.62,9.37,4.62,3.43,0,6.23-.74,8.41-2.23,2.18-1.49,3.78-3.54,4.8-6.16v-18.1c-.95-2.81-2.43-5.14-4.45-6.98-2.01-1.84-4.91-2.77-8.69-2.77-4.19,0-7.33,1.64-9.41,4.93-2.08,3.28-3.12,7.66-3.12,13.14v.75Z"/>
    <path class="cls-5" d="m363.65,197.5c-4.86,0-8.89-1.74-12.1-5.21-3.21-3.47-4.82-7.94-4.82-13.39v-2.29c0-5.66,1.54-10.28,4.62-13.85,3.08-3.57,6.94-5.36,11.59-5.36s7.98,1.4,10.66,4.2c2.68,2.8,4.02,6.66,4.02,11.59v2.96h-28.96v2.75c0,4.76,1.42,8.73,4.25,11.91,2.83,3.18,6.41,4.77,10.75,4.77,2.29,0,4.32-.36,6.11-1.07,1.79-.71,3.58-1.93,5.39-3.64l1.04,1.5c-1.52,1.64-3.27,2.91-5.25,3.8-1.98.89-4.4,1.34-7.28,1.34Zm-.71-38.17c-3.93,0-7.16,1.39-9.69,4.16-2.53,2.77-4.03,6.35-4.48,10.73h26.92v-1.18c0-4.02-1.15-7.31-3.46-9.87-2.31-2.56-5.4-3.84-9.28-3.84Z"/>
  </g>
</svg>