<?xml version="1.0" encoding="UTF-8"?>
<svg id="_Слой_2" data-name="Слой 2" xmlns="http://www.w3.org/2000/svg" viewBox="0 0 870 870">
  <defs>
    <style>
      .cls-1 {
        fill: #fff;
      }

      .cls-2 {
        fill: #d12129;
      }
    </style>
  </defs>
  <g id="Layer_1" data-name="Layer 1">
    <path class="cls-2" d="m435,870c240.24,0,435-194.76,435-435S675.24,0,435,0,0,194.76,0,435s194.76,435,435,435Z"/>
    <path class="cls-1" d="m166.79,353.02c2.85-7.47,9.6-18.07,17.07-20.55,12.44-4.14,28.1-10.31,38.43,0,2.49,2.49,2.49,10.32,0,15.3-7.84,10.32-20.64,0-30.96,7.83-15.31,15.31-14.6,38.44-7.47,56.59,13.51,35.94,51.03,81.06,25.61,116.01-9.36,12.89-35.94,30.97-59.43,25.63-4.98-2.5-7.47-7.47-4.98-12.81,2.48-4.99,6.09-5.82,11.1-7.07,5.02-1.25,16.04.23,22.36-3.26,6.3-3.46,13.15-12.81,15.65-17.79,5.34-12.81,0-28.48-5.34-41.28-2.13-5.33-2.49-12.8-7.83-18.16-27.04-27.41-27.03-64.15-14.21-100.45Z"/>
    <path class="cls-1" d="m315.98,448.92c0,2.14,2.49,4.63,4.98,2.14,14.23-11.74,13.85-23.94,20.91-41.56,2.25-5.65,5.65-14.46,5.65-16.94,2.48-7.12,14.4-32.73,15.27-39.78,1.23-9.89,7.22-29.21,15.1-32.33,9.48-3.74,16.74-2.49,21.36,7.12,4.63,7.11,2.5,16.73,2.5,23.83,2.13,18.87-2.86,40.22-7.12,59.44-9.97,44.83,2.94,125.79-9.61,135.61-4.9,3.82-13.35-4.65-14.23-9.62-2.05-11.57,1.77-23.86,2.49-35.6,1.77-40.57,4.61-78.65,7.11-119.21,0-2.13-2.5-4.63-4.98-2.13-6.75,9.12-10.87,19.14-16.04,31.31-21.35,33.47-23.82,68.7-31.29,106.43-2.14,9.59-14.24,12.1-21.71,7.47-7.12-4.99-6.99-12.11-7.12-19.23-.26-13.55-.73-21.69.53-30.46,3.09-21.64-6.96-37.68-11.59-56.55,0-2.48-3.1-3.95-5.31-3.38-2.21.56-4.98,2.48-4.98,4.64-2.13,16.73-4.99,30.96-7.12,45.19-2.49,19.21-2.14,35.93-2.14,54.8,0,2.49-2.49,7.11-7.47,9.62-9.25,2.48-13.01-4.3-13.55-12.5-.75-11.72,3.95-23.46,6.43-35.2,7.12-30.95,2.85-59.43,7.12-90.39,2.85-18.85-1.41-48.37-.02-54.9,1.38-6.54,19.24-16.27,26.36-4.53,11.74,30.96,14.23,61.93,21.35,95.03,1.42,7.12,4.98,14.59,7.12,21.7Z"/>
    <path class="cls-1" d="m470.82,345.97c2.51,71.17-7.46,116.2-7.46,187.72,0,2.5-2.49,4.99-4.98,4.99,0,0-3.64-.05-5.81-1.25-3.11-1.68-4.51-6.23-4.51-9.07,0-12.47-.02-22.85,1.11-35.86.44-4.94,2.26-37.13,2.26-44.6,0-19.77-1.68-31.07-.88-44.11,1.77-28.57-4.98-30.08-4.98-57.83,0-5.34,4.98-10.31,12.81-7.83,4.63,1.77,12.44,2.49,12.44,7.83Z"/>
    <path class="cls-1" d="m456.68,279.58c3.22-2.24,7.73-2.24,11.9,0,12.94,6.98,16.55,24.19,0,32.26-3.82,0-11.9,0-16.13-3.83-8.06-8.06-5.36-21.73,4.23-28.43Z"/>
    <path class="cls-1" d="m516.32,269.64c-12.34-17.97-17.89-29.97-24.76-40.24-7.55-11.32-5.92-5.76-22.16-26.42-14.23-17.97-28.52-18.69-27.92-36.3.48-13.84,1.06-22.48,19.93-19.78,15.06,1.8,30.19,21.26,34.38,28.44,20.66,31.45,28.61,36.48,47.39,67.93,40.3,74.73,45.76,73.19,49.33,165.77,2.03,52.29-41.88,151.94-80.43,204.17-7.01,9.46-50.25,75.4-60.19,82.91-21.41,16.19-14.38,25.62-43.43,9.44-15.69-11.68-7.31-26.97,1.46-35.94,92.75-99.73,126.81-154.85,133.33-259.07-.72-11.69-5.99-71.66-10.59-85.16-6.62-16.16-6.16-42.28-16.34-55.76Z"/>
    <path class="cls-1" d="m641.81,378.03c3.19-20.64-10.68-50.18-5.34-71.17,2.48-10.32,13.16-13.17,23.48-10.32,5.34,2.49,3.14,6.83,4.4,12.43.96,4.28,2.72,6.07,5.2,8.92,13.18,4.98,42.72-11.03,47.7,9.95,1.83,14.42-31.31,7.84-46.98,15.67-7.83,4.99-7.83,26.69-4.98,32.02,10.32,13.17,27.15,6.93,39.14,15.67,3.41,2.48,2.84,9.25,0,10.32-11.18,4.19-23.48,0-34.16,2.86-4.98,2.48-7.83,7.82-10.32,12.8-7.83,23.5-5.33,46.98-5.33,70.48,0,2.49-.09,7.83,0,10.31.25,7.98,10.67,15.66,15.65,15.66,15.67,2.85,30.72,11.48,42.64-2.46,2.7-3.15,8.54-3.45,8.54-3.45,2.84,0,4.47,3.21,4.47,5.69,0,2.85-.57,3.96-2.27,7.35-6.35,12.7-14.33,12.58-24.18,13.12-18.15,1.01-37.84,5.35-52.69-1.74-7.28-3.46-10.31-10.67-12.8-15.66-7.83-28.82,2.16-37.49-.69-66.32,0-4.98,1.57-23.53,2.81-29.94,3.05-15.46,3.57-29.02,5.71-42.19Z"/>
  </g>
</svg>