<?xml version="1.0" encoding="UTF-8"?>
<svg id="_Слой_2" data-name="Слой 2" xmlns="http://www.w3.org/2000/svg" xmlns:xlink="http://www.w3.org/1999/xlink" viewBox="0 0 1000 918.34">
  <defs>
    <style>
      .cls-1 {
        fill: url(#linear-gradient-2);
      }

      .cls-2 {
        fill: #fff;
      }

      .cls-3 {
        fill: url(#radial-gradient);
      }

      .cls-4, .cls-5 {
        fill: #384f5a;
      }

      .cls-6 {
        fill: url(#radial-gradient-2);
      }

      .cls-5 {
        fill-rule: evenodd;
      }

      .cls-7 {
        fill: url(#linear-gradient-3);
      }

      .cls-8 {
        fill: url(#linear-gradient);
      }
    </style>
    <linearGradient id="linear-gradient" x1="275.38" y1="562.09" x2="592.38" y2="878.86" gradientTransform="translate(0 881.53) scale(1 -1)" gradientUnits="userSpaceOnUse">
      <stop offset="0" stop-color="#fab716"/>
      <stop offset=".77" stop-color="#dd4d27"/>
      <stop offset="1" stop-color="#dd4d27"/>
    </linearGradient>
    <linearGradient id="linear-gradient-2" x1="172.66" y1="409.84" x2="407.21" y2="644.23" gradientTransform="translate(0 881.53) scale(1 -1)" gradientUnits="userSpaceOnUse">
      <stop offset="0" stop-color="#952b6c"/>
      <stop offset=".83" stop-color="#ef5228"/>
      <stop offset="1" stop-color="#ef5228"/>
    </linearGradient>
    <linearGradient id="linear-gradient-3" x1="422.83" y1="743.39" x2="519.21" y2="401.87" gradientTransform="translate(0 881.53) scale(1 -1)" gradientUnits="userSpaceOnUse">
      <stop offset="0" stop-color="#f05e25"/>
      <stop offset=".16" stop-color="#f05e25"/>
      <stop offset="1" stop-color="#b51e49"/>
    </linearGradient>
    <radialGradient id="radial-gradient" cx="1837.61" cy="653.28" fx="1837.61" fy="653.28" r="1" gradientTransform="translate(-341307.47 121928.44) scale(185.96 -186.09)" gradientUnits="userSpaceOnUse">
      <stop offset="0" stop-color="#fef384"/>
      <stop offset="1" stop-color="#d2b02a"/>
    </radialGradient>
    <radialGradient id="radial-gradient-2" cx="1831.8" cy="654.69" fx="1831.8" fy="654.69" r="1" gradientTransform="translate(-225063.02 80975.64) scale(123.12 -123.21)" gradientUnits="userSpaceOnUse">
      <stop offset="0" stop-color="#fef384"/>
      <stop offset="1" stop-color="#83712d"/>
    </radialGradient>
  </defs>
  <g id="Layer_1" data-name="Layer 1">
    <path class="cls-8" d="m718.9,136.66C619.65-7.15,422.69-43.23,278.96,56.08c-33.54,23.18-61.14,51.74-82.6,83.66-1.47,2.19-2.99,4.36-4.41,6.58-5.01,18.94-6.76,38.86-3.46,59.28,2.42,15.04,7.2,27.44,13.77,37.8.16.26.33.52.5.78,1.22,1.88,2.48,3.72,3.82,5.45.85,1.12,1.79,2.18,2.71,3.25.98,1.12,1.92,2.29,2.95,3.35,1,1.03,2.11,1.97,3.18,2.95,6.12,5.62,13,10.37,20.72,14.12,1.19.58,2.38,1.16,3.61,1.69,39.26,17.23,75.9,18.29,141.07-14.77,67.14-34.02,135.7-90.91,213.16-100.87,13.67-63.29,78.92-68.21,127.54-18.7-.89-1.33-1.71-2.69-2.62-4.01Z"/>
    <path class="cls-1" d="m328.34,307.81c-63.85-18.32-63.87-17.43-92.22-34.49-24.94-12.11-42.14-33.4-47.65-67.71-3.29-20.42-1.54-40.35,3.46-59.28-66.24,104.1-67.97,242.06,6.49,350,3.01,4.36,6.12,8.61,9.3,12.77,2.82,3.69,5.74,7.26,8.69,10.79,18.26,14.2,36.6,24.35,52.35,31.38,33.25,14.82,62.41,19.08,86.83,15.67,48.09-6.71,77.73-43.22,83.49-87.98,8.42-65.76-22.62-145.88-110.75-171.15Z"/>
    <path class="cls-7" d="m759.86,219.94c-8.8-27.47-21.57-54.14-38.36-79.27-48.62-49.5-113.87-44.59-127.54,18.7-1.24,5.72-2.04,11.92-2.38,18.6-10.6,207.81-73.32,381.48-219.03,388.84-5.71.29-11.35.29-16.94.13-24.42,3.4-53.59-.85-86.83-15.67-15.75-7.03-34.09-17.18-52.35-31.38,103.66,123.88,286.46,150.65,421.96,56.98,117.45-81.14,162.94-227.6,121.48-356.93Z"/>
    <path class="cls-2" d="m655.83,102.94c-30.11-6.66-51.45,8.71-61.3,39.67-.93.04-1.82.06-2.75.11-93.97,4.55-196.61,107.18-268.28,125.52-113.29,29.01-132.8-44.1-135.92-77.59-.43-10.29-.13-18.92-.13-18.92,0,0-14.21,66.54,32.4,103.52,52.29,41.5,196.48,36.95,207.19,165.8,5.05,60.99-12.8,93.6-45.76,106.67-34.88,13.78-82.39,3.03-109.46-5.36-29.6-11.51-52.02-25.55-60.47-31.08,0,0,20.91,25.55,90.78,48.37,47.89,15.64,168.75,31.65,241.52-121.56,26.58-55.93,54.45-149.26,57.61-242.67,4.54-134.2,103.12-70.54,103.12-70.54,0,0-22.77-16.28-48.55-21.94Zm-239.3,444.19c-8.36,3.67-16.83,6.4-25.33,8.36,27.89-12.95,45.23-39.23,48.65-75.02,6.8-70.99-22.88-147.51-110.99-172.79-52.57-15.08-70.1-21.74-86.39-30.76,38.24,16.08,74.68,16.36,138.33-15.87,66.1-33.53,133.59-89.07,209.57-100.3-.73,4.77-1.32,9.73-1.64,14.99-9.08,151.27-46.14,316.15-172.21,371.4Z"/>
    <path class="cls-3" d="m242.46,276.92c16.29,9.02,33.82,15.68,86.39,30.76,88.11,25.28,117.79,101.8,110.99,172.79-3.42,35.79-20.76,62.07-48.65,75.02,8.49-1.97,16.96-4.7,25.33-8.36,126.07-55.25,163.13-220.13,172.21-371.4.32-5.26.9-10.22,1.64-14.99-75.98,11.24-143.48,66.78-209.57,100.31-63.66,32.23-100.09,31.96-138.34,15.87Zm225.4-25.36c54.19-40.18,103.83-55.74,103.83-55.74,0,0-21.21,69.45-42.45,131.55-19.32,56.51-43.57,96.71-43.57,96.71,0,0-.78-41.71-25.02-81.92-22.52-37.37-40.15-45.14-40.15-45.14,0,0,6.19-14.95,47.37-45.47Z"/>
    <path class="cls-6" d="m572.2,174.75s-74.75,35.92-133.12,74.14c-41.69,27.32-65.6,42.96-65.6,42.96,0,0,47.24,22.1,71.63,61.25,34.78,55.82,35.16,97.42,35.16,97.42,0,0,29.67-38.21,50.12-100.39,19.97-60.69,50.35-179.67,50.35-179.67l-8.53,4.28Zm-42.95,152.62c-19.32,56.51-43.57,96.71-43.57,96.71,0,0-.78-41.71-25.02-81.92-22.52-37.37-40.15-45.14-40.15-45.14,0,0,6.19-14.95,47.36-45.48,54.19-40.17,103.83-55.74,103.83-55.74,0,0-21.21,69.45-42.45,131.55Z"/>
    <path class="cls-5" d="m412.76,786.76c0-54.47-25.71-63.52-52.95-63.52-15.94,0-33.06,2.34-42.1,8.05-4.23-3.86-10.63-5.03-19.89-5.03v142.35l27.24.06v-106.09c0-4.77-.16-8.97-.51-12.58,6.03-10.96,16.24-14.67,29.22-14.67,18.15,0,31.76,9.06,31.76,51.43v45.43c0,30.25,6.04,36.32,27.23,36.32v-81.75Zm-272.57-60.36h-9.93v142.27c20.7,0,26.94-5.8,27.23-34.26v-64l18.8,41.45c10.24,22.2,31.76,30.65,43.25,31.36l38.42-85.07v76.26c.27,28.46,6.52,34.26,27.21,34.26v-142.27c-21.27,0-27.28-.98-33.87,14.69l-35.49,78.47c-7.94-3.99-12.67-14.1-17.39-24.48l-24.54-54.02c-5.67-11.31-13.32-14.48-33.68-14.66Zm-59.66,1c-16.27-6.44-47.02-4.71-61.8,1.51-3.22,1.37-6.03,3.07-8.15,5.18-5.31,5.3-6.88,11.36-7.36,18.16l11.85,15.25c.86-3.44,1.99-7.97,2.11-8.45,1.69-6.14,4.2-10.82,7.4-14.34,2.67-2.92,5.79-5.01,9.36-6.46,9.44-3.84,21.57-3.7,31.02.16,18.43,7.46,27.49,29.09,28.69,54.64h-39.38c-6-.11-12.57-3.1-17.57-7.4h-7.48l24.12,30.95h7.87c-2.1-5.54-1.75-11.46,3.2-11.46h29.24c-1.51,31.76-16.01,54.42-43.79,54.42-21.18,0-33.23-9.08-43.82-24.2l-6.05,4.53c13.59,22.68,31.74,31.79,55.88,31.79,45.33,0,66.48-33.3,66.48-74.12,0-32.52-13.42-60.23-41.83-70.16Zm688.19,104.92c0,30.25,6.05,36.35,27.25,36.35v-142.27h-27.25v66.58c-19.2,0-46.4-4.36-60.47,12.1v-42.38c0-30.27-6.06-36.3-27.22-36.3v142.27h27.22v-32.88c.96-31.93,38.17-30.71,60.47-30.71v27.24Zm-317.14,86.02v-55.9c9.08,4.58,21.17,9.13,37.82,9.13,39.3,0,57.47-33.32,57.47-74.19s-18.16-74.17-54.43-74.17c-19.29,0-33.78,4.95-44.34,13.5-3.78-8.26-11.03-10.45-23.75-10.45v192.08h27.23Zm0-164.84c6.07-9.11,15.13-18.17,31.76-18.17,24.18,0,34.77,27.25,34.77,62.05s-10.59,62.07-37.81,62.07c-9.05,0-19.64-4.58-28.72-9.11v-96.84Zm469.76,33.42c0-54.49-25.67-63.55-52.89-63.55-18.2,0-37.83,3.03-45.38,10.56-5.31,5.33-6.88,11.42-7.37,18.22l11.85,15.27c.87-3.47,2-8.02,2.12-8.48,4.92-17.88,16.74-23.47,32.7-23.47,17.59,0,30.91,8.53,31.71,47.56.05,1.28.05,8.61.05,9.95h-9.06c-40.83,0-77.13,3-77.13,36.32s27.21,42.41,43.83,42.41c22.73,0,36.32-9.11,42.36-16.68h1.54c3.3,10.96,11.48,13.64,25.67,13.64v-81.75Zm-27.21,52.97c-6.04,9.08-13.59,18.13-28.72,18.13s-28.75-9.05-28.75-28.72c0-18.15,18.17-24.22,48.41-24.22h9.06v34.81Zm-226.92-52.97c0-54.49-25.69-63.55-52.91-63.55-18.14,0-37.83,3.03-45.39,10.56-5.29,5.33-6.88,11.42-7.37,18.22l11.86,15.27c.86-3.47,1.99-8.02,2.13-8.48,4.94-17.88,16.69-23.47,32.69-23.47,17.59,0,30.91,8.53,31.74,47.56,0,1.28.03,8.61.03,9.95h-9.09c-40.82,0-77.1,3-77.1,36.32s27.19,42.41,43.83,42.41c22.7,0,36.3-9.11,42.36-16.68h1.52c3.31,10.96,11.49,13.64,25.69,13.64v-81.75Zm-27.21,52.97c-6.06,9.08-13.63,18.13-28.71,18.13s-28.77-9.05-28.77-28.72c0-18.15,18.13-24.22,48.39-24.22h9.09v34.81Z"/>
    <path class="cls-4" d="m951.83,677.2h3.4c4.8,0,7.8.2,9.01.59,1.23.38,2.16,1.03,2.82,1.93.67.9,1,1.93,1,3.09s-.34,2.25-1.03,3.18c-.66.94-1.6,1.59-2.76,1.96-1.18.37-4.18.55-9.04.55h-3.4v-11.3Zm0,34.83v-17.01h2.19c2.34,0,4.27.58,5.8,1.75,1.53,1.18,3.45,4.01,5.79,8.53l3.46,6.73h10.38l-4.87-8.35c-1.74-2.96-2.76-4.65-3.07-5.04-1.19-1.56-2.12-2.63-2.8-3.18-.67-.55-1.64-1.08-2.89-1.56,3.53-.51,6.27-1.82,8.22-3.94,1.94-2.12,2.92-4.68,2.92-7.67,0-2.17-.52-4.15-1.54-5.93-1.04-1.78-2.33-3.11-3.88-3.97-1.53-.87-3.71-1.42-6.49-1.66-.94-.07-5.35-.1-13.22-.1h-8.39v41.38h8.39Zm24.71-48.21c4.93,2.68,8.8,6.53,11.63,11.55,2.83,5.03,4.25,10.28,4.25,15.78s-1.39,10.67-4.16,15.63c-2.78,4.95-6.64,8.82-11.58,11.6-4.93,2.79-10.13,4.19-15.59,4.19s-10.61-1.4-15.56-4.19c-4.97-2.78-8.82-6.64-11.58-11.6-2.77-4.96-4.14-10.16-4.14-15.63s1.41-10.74,4.24-15.78c2.83-5.02,6.71-8.87,11.62-11.55,4.92-2.68,10.05-4.03,15.42-4.03s10.51,1.35,15.45,4.03Zm-34.74-6.65c-6.13,3.34-10.96,8.14-14.46,14.39-3.51,6.24-5.26,12.77-5.26,19.59s1.72,13.26,5.15,19.43c3.44,6.16,8.24,10.96,14.41,14.4,6.14,3.45,12.62,5.17,19.4,5.17s13.24-1.72,19.4-5.17c6.16-3.44,10.96-8.25,14.4-14.4,3.45-6.16,5.16-12.64,5.16-19.43s-1.75-13.35-5.26-19.59c-3.51-6.25-8.33-11.05-14.47-14.39-6.14-3.34-12.55-5.01-19.23-5.01s-13.1,1.67-19.24,5.01Z"/>
  </g>
</svg>